<svg width="135" height="111" viewBox="0 0 135 111" fill="none" xmlns="http://www.w3.org/2000/svg">
<g filter="url(#filter0_d_423_542)">
<rect x="0.5" y="0.5" width="133" height="109" rx="4.5" stroke="#828282" shape-rendering="crispEdges"/>
</g>
<path d="M17 100.333L13.5 96.8333H20.5L17 100.333Z" fill="#FE2C55"/>
<path d="M30.252 98.7051C30.252 99.4004 30.1992 100.021 30.0938 100.568C29.9883 101.115 29.8223 101.578 29.5957 101.957C29.3691 102.336 29.0762 102.625 28.7168 102.824C28.3574 103.02 27.9258 103.117 27.4219 103.117C26.7852 103.117 26.2578 102.943 25.8398 102.596C25.4258 102.248 25.1152 101.746 24.9082 101.09C24.7051 100.43 24.6035 99.6348 24.6035 98.7051C24.6035 97.791 24.6953 97.0059 24.8789 96.3496C25.0664 95.6895 25.3672 95.1836 25.7812 94.832C26.1953 94.4766 26.7422 94.2988 27.4219 94.2988C28.0664 94.2988 28.5977 94.4746 29.0156 94.8262C29.4336 95.1738 29.7441 95.6777 29.9473 96.3379C30.1504 96.9941 30.252 97.7832 30.252 98.7051ZM25.582 98.7051C25.582 99.502 25.6426 100.166 25.7637 100.697C25.8848 101.229 26.0801 101.627 26.3496 101.893C26.623 102.154 26.9805 102.285 27.4219 102.285C27.8633 102.285 28.2188 102.154 28.4883 101.893C28.7617 101.631 28.959 101.234 29.0801 100.703C29.2051 100.172 29.2676 99.5059 29.2676 98.7051C29.2676 97.9199 29.207 97.2637 29.0859 96.7363C28.9648 96.2051 28.7695 95.8066 28.5 95.541C28.2305 95.2715 27.8711 95.1367 27.4219 95.1367C26.9727 95.1367 26.6133 95.2715 26.3438 95.541C26.0742 95.8066 25.8789 96.2051 25.7578 96.7363C25.6406 97.2637 25.582 97.9199 25.582 98.7051ZM31.7461 102.391C31.7461 102.117 31.8125 101.924 31.9453 101.811C32.0781 101.693 32.2402 101.635 32.4316 101.635C32.6309 101.635 32.7988 101.693 32.9355 101.811C33.0723 101.924 33.1406 102.117 33.1406 102.391C33.1406 102.66 33.0723 102.857 32.9355 102.982C32.7988 103.104 32.6309 103.164 32.4316 103.164C32.2402 103.164 32.0781 103.104 31.9453 102.982C31.8125 102.857 31.7461 102.66 31.7461 102.391ZM39.9082 96.4316C39.9082 96.8145 39.834 97.1465 39.6855 97.4277C39.5371 97.709 39.3301 97.9395 39.0645 98.1191C38.7988 98.2949 38.4863 98.418 38.127 98.4883V98.5352C38.8066 98.6211 39.3164 98.8398 39.6562 99.1914C40 99.543 40.1719 100.004 40.1719 100.574C40.1719 101.07 40.0547 101.51 39.8203 101.893C39.5898 102.275 39.2344 102.576 38.7539 102.795C38.2773 103.01 37.666 103.117 36.9199 103.117C36.4668 103.117 36.0469 103.08 35.6602 103.006C35.2773 102.936 34.9102 102.816 34.5586 102.648V101.734C34.9141 101.91 35.3008 102.049 35.7188 102.15C36.1367 102.248 36.541 102.297 36.9316 102.297C37.7129 102.297 38.2773 102.143 38.625 101.834C38.9727 101.521 39.1465 101.096 39.1465 100.557C39.1465 100.186 39.0488 99.8867 38.8535 99.6602C38.6621 99.4297 38.3848 99.2617 38.0215 99.1562C37.6621 99.0469 37.2285 98.9922 36.7207 98.9922H35.8652V98.1602H36.7266C37.1914 98.1602 37.5859 98.0918 37.9102 97.9551C38.2344 97.8184 38.4805 97.627 38.6484 97.3809C38.8203 97.1309 38.9062 96.8359 38.9062 96.4961C38.9062 96.0625 38.7617 95.7285 38.4727 95.4941C38.1836 95.2559 37.791 95.1367 37.2949 95.1367C36.9902 95.1367 36.7129 95.168 36.4629 95.2305C36.2129 95.293 35.9785 95.3789 35.7598 95.4883C35.541 95.5977 35.3223 95.7246 35.1035 95.8691L34.6113 95.2012C34.9238 94.959 35.3047 94.75 35.7539 94.5742C36.2031 94.3984 36.7129 94.3105 37.2832 94.3105C38.1582 94.3105 38.8145 94.5098 39.252 94.9082C39.6895 95.3066 39.9082 95.8145 39.9082 96.4316ZM44.3086 94.3105C44.8047 94.3105 45.2441 94.3887 45.627 94.5449C46.0098 94.7012 46.3086 94.9316 46.5234 95.2363C46.7422 95.5371 46.8516 95.9082 46.8516 96.3496C46.8516 96.6973 46.7754 97.002 46.623 97.2637C46.4746 97.5215 46.2734 97.748 46.0195 97.9434C45.7656 98.1348 45.4844 98.3066 45.1758 98.459C45.543 98.627 45.873 98.8164 46.166 99.0273C46.4629 99.2383 46.6973 99.4863 46.8691 99.7715C47.041 100.057 47.127 100.395 47.127 100.785C47.127 101.266 47.0098 101.682 46.7754 102.033C46.5449 102.381 46.2207 102.648 45.8027 102.836C45.3848 103.023 44.8945 103.117 44.332 103.117C43.7266 103.117 43.2109 103.027 42.7852 102.848C42.3633 102.664 42.041 102.402 41.8184 102.062C41.5996 101.719 41.4902 101.307 41.4902 100.826C41.4902 100.432 41.5742 100.09 41.7422 99.8008C41.9102 99.5078 42.1328 99.2559 42.4102 99.0449C42.6875 98.834 42.9902 98.6562 43.3184 98.5117C43.0332 98.3555 42.7715 98.1777 42.5332 97.9785C42.2988 97.7793 42.1113 97.5469 41.9707 97.2812C41.834 97.0117 41.7656 96.6992 41.7656 96.3438C41.7656 95.9102 41.875 95.543 42.0938 95.2422C42.3164 94.9375 42.6191 94.707 43.002 94.5508C43.3887 94.3906 43.8242 94.3105 44.3086 94.3105ZM42.4453 100.832C42.4453 101.27 42.5996 101.631 42.9082 101.916C43.2168 102.197 43.6836 102.338 44.3086 102.338C44.9023 102.338 45.3613 102.197 45.6855 101.916C46.0098 101.631 46.1719 101.258 46.1719 100.797C46.1719 100.512 46.0977 100.262 45.9492 100.047C45.8008 99.8281 45.5898 99.6328 45.3164 99.4609C45.043 99.2891 44.7207 99.1328 44.3496 98.9922L44.1387 98.916C43.7793 99.0645 43.4727 99.2305 43.2188 99.4141C42.9688 99.5938 42.7773 99.7988 42.6445 100.029C42.5117 100.26 42.4453 100.527 42.4453 100.832ZM44.2969 95.1074C43.8359 95.1074 43.459 95.2188 43.166 95.4414C42.873 95.6602 42.7266 95.9766 42.7266 96.3906C42.7266 96.6875 42.7969 96.9395 42.9375 97.1465C43.082 97.3496 43.2773 97.5254 43.5234 97.6738C43.7695 97.8184 44.0449 97.9531 44.3496 98.0781C44.6465 97.9531 44.9102 97.8164 45.1406 97.668C45.3711 97.5156 45.5527 97.3359 45.6855 97.1289C45.8184 96.9219 45.8848 96.6738 45.8848 96.3848C45.8848 95.9707 45.7383 95.6543 45.4453 95.4355C45.1562 95.2168 44.7734 95.1074 44.2969 95.1074ZM50.0918 94.3105C50.6777 94.3105 51.1211 94.5449 51.4219 95.0137C51.7266 95.4785 51.8789 96.1367 51.8789 96.9883C51.8789 97.8398 51.7324 98.5039 51.4395 98.9805C51.1465 99.4531 50.6973 99.6895 50.0918 99.6895C49.5293 99.6895 49.0977 99.4531 48.7969 98.9805C48.5 98.5039 48.3516 97.8398 48.3516 96.9883C48.3516 96.1367 48.4941 95.4785 48.7793 95.0137C49.0645 94.5449 49.502 94.3105 50.0918 94.3105ZM50.0918 95.0078C49.7754 95.0078 49.543 95.1738 49.3945 95.5059C49.2461 95.834 49.1719 96.3281 49.1719 96.9883C49.1719 97.6484 49.2461 98.1465 49.3945 98.4824C49.543 98.8184 49.7754 98.9863 50.0918 98.9863C50.4199 98.9863 50.6641 98.8184 50.8242 98.4824C50.9844 98.1465 51.0645 97.6484 51.0645 96.9883C51.0645 96.332 50.9844 95.8379 50.8242 95.5059C50.668 95.1738 50.4238 95.0078 50.0918 95.0078ZM55.5176 94.4336L50.7656 103H49.9102L54.6621 94.4336H55.5176ZM55.2891 97.7441C55.8711 97.7441 56.3145 97.9785 56.6191 98.4473C56.9238 98.9121 57.0762 99.5703 57.0762 100.422C57.0762 101.27 56.9297 101.932 56.6367 102.408C56.3438 102.881 55.8945 103.117 55.2891 103.117C54.7227 103.117 54.291 102.881 53.9941 102.408C53.6973 101.932 53.5488 101.27 53.5488 100.422C53.5488 99.5703 53.6895 98.9121 53.9707 98.4473C54.2559 97.9785 54.6953 97.7441 55.2891 97.7441ZM55.2891 98.4473C54.9727 98.4473 54.7402 98.6113 54.5918 98.9395C54.4434 99.2676 54.3691 99.7617 54.3691 100.422C54.3691 101.082 54.4434 101.58 54.5918 101.916C54.7402 102.248 54.9727 102.414 55.2891 102.414C55.6172 102.414 55.8613 102.25 56.0215 101.922C56.1816 101.59 56.2617 101.09 56.2617 100.422C56.2617 99.7656 56.1816 99.2734 56.0215 98.9453C55.8652 98.6133 55.6211 98.4473 55.2891 98.4473Z" fill="#FE2C55"/>
<path d="M16.6328 84.0137H15.3496V86H14.4004V84.0137H10.2578V83.1934L14.3359 77.3867H15.3496V83.1348H16.6328V84.0137ZM14.4004 83.1348V80.334C14.4004 80.1191 14.4023 79.9258 14.4062 79.7539C14.4102 79.5781 14.416 79.416 14.4238 79.2676C14.4316 79.1152 14.4375 78.9707 14.4414 78.834C14.4492 78.6973 14.4551 78.5625 14.459 78.4297H14.4121C14.3379 78.5859 14.252 78.752 14.1543 78.9277C14.0605 79.0996 13.9648 79.2539 13.8672 79.3906L11.2246 83.1348H14.4004ZM20.166 80.7617C20.748 80.7617 21.2539 80.8613 21.6836 81.0605C22.1133 81.2559 22.4453 81.541 22.6797 81.916C22.918 82.291 23.0371 82.7461 23.0371 83.2812C23.0371 83.8672 22.9102 84.373 22.6562 84.7988C22.4023 85.2207 22.0371 85.5469 21.5605 85.7773C21.084 86.0039 20.5137 86.1172 19.8496 86.1172C19.4043 86.1172 18.9902 86.0781 18.6074 86C18.2246 85.9219 17.9023 85.8047 17.6406 85.6484V84.7227C17.9258 84.8945 18.2715 85.0312 18.6777 85.1328C19.084 85.2344 19.4785 85.2852 19.8613 85.2852C20.2949 85.2852 20.6738 85.2168 20.998 85.0801C21.3262 84.9395 21.5801 84.7285 21.7598 84.4473C21.9434 84.1621 22.0352 83.8047 22.0352 83.375C22.0352 82.8047 21.8594 82.3652 21.5078 82.0566C21.1602 81.7441 20.6094 81.5879 19.8555 81.5879C19.6133 81.5879 19.3477 81.6074 19.0586 81.6465C18.7695 81.6855 18.5312 81.7285 18.3438 81.7754L17.8516 81.4531L18.1797 77.4336H22.4395V78.3242H19.0117L18.7949 80.9082C18.9434 80.877 19.1348 80.8457 19.3691 80.8145C19.6035 80.7793 19.8691 80.7617 20.166 80.7617ZM25.873 84.6055L25.9492 84.7402C25.8789 85.0254 25.7891 85.3301 25.6797 85.6543C25.5742 85.9785 25.457 86.3027 25.3281 86.627C25.2031 86.9551 25.0762 87.2617 24.9473 87.5469H24.2207C24.3027 87.2344 24.3828 86.9043 24.4609 86.5566C24.5391 86.2129 24.6094 85.873 24.6719 85.5371C24.7383 85.1973 24.791 84.8867 24.8301 84.6055H25.873ZM33.0566 81.084C33.0566 81.6035 33.0195 82.1094 32.9453 82.6016C32.875 83.0938 32.752 83.5527 32.5762 83.9785C32.4043 84.4043 32.1699 84.7773 31.873 85.0977C31.5762 85.418 31.2031 85.6699 30.7539 85.8535C30.3086 86.0332 29.7754 86.123 29.1543 86.123C28.9863 86.123 28.7949 86.1113 28.5801 86.0879C28.3652 86.0684 28.1895 86.0391 28.0527 86V85.1562C28.1973 85.207 28.3672 85.248 28.5625 85.2793C28.7578 85.3066 28.9492 85.3203 29.1367 85.3203C29.8672 85.3203 30.4414 85.1641 30.8594 84.8516C31.2773 84.5352 31.5781 84.1074 31.7617 83.5684C31.9453 83.0254 32.0488 82.416 32.0723 81.7402H32.002C31.8848 81.9277 31.7305 82.1016 31.5391 82.2617C31.3516 82.418 31.123 82.5449 30.8535 82.6426C30.584 82.7363 30.2695 82.7832 29.9102 82.7832C29.4141 82.7832 28.9805 82.6816 28.6094 82.4785C28.2422 82.2754 27.9551 81.9805 27.748 81.5938C27.5449 81.207 27.4434 80.7402 27.4434 80.1934C27.4434 79.6035 27.5547 79.0938 27.7773 78.6641C28.0039 78.2305 28.3203 77.8965 28.7266 77.6621C29.1328 77.4277 29.6113 77.3105 30.1621 77.3105C30.584 77.3105 30.9707 77.3906 31.3223 77.5508C31.6738 77.7109 31.9785 77.9512 32.2363 78.2715C32.498 78.5879 32.6992 78.9805 32.8398 79.4492C32.9844 79.918 33.0566 80.4629 33.0566 81.084ZM30.1621 78.1367C29.6426 78.1367 29.2207 78.3066 28.8965 78.6465C28.5762 78.9863 28.416 79.498 28.416 80.1816C28.416 80.748 28.5547 81.1953 28.832 81.5234C29.1094 81.8516 29.5371 82.0156 30.1152 82.0156C30.5137 82.0156 30.8574 81.9355 31.1465 81.7754C31.4395 81.6152 31.6641 81.4121 31.8203 81.166C31.9805 80.9199 32.0605 80.668 32.0605 80.4102C32.0605 80.1523 32.0215 79.8906 31.9434 79.625C31.8691 79.3594 31.7539 79.1152 31.5977 78.8926C31.4414 78.666 31.2441 78.4844 31.0059 78.3477C30.7676 78.207 30.4863 78.1367 30.1621 78.1367ZM40.3398 84.0137H39.0566V86H38.1074V84.0137H33.9648V83.1934L38.043 77.3867H39.0566V83.1348H40.3398V84.0137ZM38.1074 83.1348V80.334C38.1074 80.1191 38.1094 79.9258 38.1133 79.7539C38.1172 79.5781 38.123 79.416 38.1309 79.2676C38.1387 79.1152 38.1445 78.9707 38.1484 78.834C38.1562 78.6973 38.1621 78.5625 38.166 78.4297H38.1191C38.0449 78.5859 37.959 78.752 37.8613 78.9277C37.7676 79.0996 37.6719 79.2539 37.5742 79.3906L34.9316 83.1348H38.1074ZM42.2734 86L45.7891 78.3242H41.1191V77.4336H46.832V78.1836L43.3398 86H42.2734ZM48.3203 85.3906C48.3203 85.1172 48.3867 84.9238 48.5195 84.8105C48.6523 84.6934 48.8145 84.6348 49.0059 84.6348C49.2051 84.6348 49.373 84.6934 49.5098 84.8105C49.6465 84.9238 49.7148 85.1172 49.7148 85.3906C49.7148 85.6602 49.6465 85.8574 49.5098 85.9824C49.373 86.1035 49.2051 86.1641 49.0059 86.1641C48.8145 86.1641 48.6523 86.1035 48.5195 85.9824C48.3867 85.8574 48.3203 85.6602 48.3203 85.3906ZM56.4824 79.4316C56.4824 79.8145 56.4082 80.1465 56.2598 80.4277C56.1113 80.709 55.9043 80.9395 55.6387 81.1191C55.373 81.2949 55.0605 81.418 54.7012 81.4883V81.5352C55.3809 81.6211 55.8906 81.8398 56.2305 82.1914C56.5742 82.543 56.7461 83.0039 56.7461 83.5742C56.7461 84.0703 56.6289 84.5098 56.3945 84.8926C56.1641 85.2754 55.8086 85.5762 55.3281 85.7949C54.8516 86.0098 54.2402 86.1172 53.4941 86.1172C53.041 86.1172 52.6211 86.0801 52.2344 86.0059C51.8516 85.9355 51.4844 85.8164 51.1328 85.6484V84.7344C51.4883 84.9102 51.875 85.0488 52.293 85.1504C52.7109 85.248 53.1152 85.2969 53.5059 85.2969C54.2871 85.2969 54.8516 85.1426 55.1992 84.834C55.5469 84.5215 55.7207 84.0957 55.7207 83.5566C55.7207 83.1855 55.623 82.8867 55.4277 82.6602C55.2363 82.4297 54.959 82.2617 54.5957 82.1562C54.2363 82.0469 53.8027 81.9922 53.2949 81.9922H52.4395V81.1602H53.3008C53.7656 81.1602 54.1602 81.0918 54.4844 80.9551C54.8086 80.8184 55.0547 80.627 55.2227 80.3809C55.3945 80.1309 55.4805 79.8359 55.4805 79.4961C55.4805 79.0625 55.3359 78.7285 55.0469 78.4941C54.7578 78.2559 54.3652 78.1367 53.8691 78.1367C53.5645 78.1367 53.2871 78.168 53.0371 78.2305C52.7871 78.293 52.5527 78.3789 52.334 78.4883C52.1152 78.5977 51.8965 78.7246 51.6777 78.8691L51.1855 78.2012C51.498 77.959 51.8789 77.75 52.3281 77.5742C52.7773 77.3984 53.2871 77.3105 53.8574 77.3105C54.7324 77.3105 55.3887 77.5098 55.8262 77.9082C56.2637 78.3066 56.4824 78.8145 56.4824 79.4316ZM63.666 86H58.0527V85.1855L60.3438 82.8594C60.7695 82.4297 61.127 82.0469 61.416 81.7109C61.709 81.375 61.9316 81.0449 62.084 80.7207C62.2363 80.3926 62.3125 80.0332 62.3125 79.6426C62.3125 79.1582 62.168 78.7891 61.8789 78.5352C61.5938 78.2773 61.2168 78.1484 60.748 78.1484C60.3379 78.1484 59.9746 78.2188 59.6582 78.3594C59.3418 78.5 59.0176 78.6992 58.6855 78.957L58.1641 78.3008C58.3906 78.1094 58.6367 77.9395 58.9023 77.791C59.1719 77.6426 59.459 77.5254 59.7637 77.4395C60.0723 77.3535 60.4004 77.3105 60.748 77.3105C61.2754 77.3105 61.7305 77.4023 62.1133 77.5859C62.4961 77.7695 62.791 78.0312 62.998 78.3711C63.209 78.7109 63.3145 79.1152 63.3145 79.584C63.3145 80.0371 63.2246 80.459 63.0449 80.8496C62.8652 81.2363 62.6133 81.6211 62.2891 82.0039C61.9648 82.3828 61.5859 82.7852 61.1523 83.2109L59.2891 85.0684V85.1094H63.666V86Z" fill="black"/>
<path d="M11.1186 19V8.81818H12.6548V13.2429H17.7308V8.81818H19.272V19H17.7308V14.5604H12.6548V19H11.1186ZM23.6122 19.169C23.1283 19.169 22.6908 19.0795 22.2997 18.9006C21.9086 18.7183 21.5987 18.4548 21.37 18.1101C21.1446 17.7654 21.032 17.3428 21.032 16.8423C21.032 16.4115 21.1148 16.0568 21.2805 15.7784C21.4463 15.5 21.67 15.2796 21.9517 15.1172C22.2334 14.9548 22.5483 14.8321 22.8963 14.7493C23.2443 14.6664 23.599 14.6035 23.9602 14.5604C24.4176 14.5073 24.7888 14.4643 25.0739 14.4311C25.3589 14.3946 25.5661 14.3366 25.6953 14.2571C25.8246 14.1776 25.8892 14.0483 25.8892 13.8693V13.8345C25.8892 13.4003 25.7666 13.0639 25.5213 12.8253C25.2794 12.5866 24.9181 12.4673 24.4375 12.4673C23.937 12.4673 23.5426 12.5784 23.2543 12.8004C22.9692 13.0192 22.772 13.2628 22.6626 13.5312L21.2656 13.2131C21.4313 12.7491 21.6733 12.3745 21.9915 12.0895C22.313 11.8011 22.6825 11.5923 23.1001 11.4631C23.5178 11.3305 23.9569 11.2642 24.4176 11.2642C24.7225 11.2642 25.0457 11.3007 25.3871 11.3736C25.7318 11.4432 26.0533 11.5724 26.3516 11.7614C26.6532 11.9503 26.9001 12.2204 27.0923 12.5717C27.2846 12.9197 27.3807 13.3722 27.3807 13.929V19H25.929V17.956H25.8693C25.7732 18.1482 25.629 18.3371 25.4368 18.5227C25.2446 18.7083 24.9976 18.8625 24.696 18.9851C24.3944 19.1077 24.0331 19.169 23.6122 19.169ZM23.9354 17.9759C24.3464 17.9759 24.6977 17.8946 24.9893 17.7322C25.2843 17.5698 25.508 17.3577 25.6605 17.0959C25.8163 16.8307 25.8942 16.5473 25.8942 16.2457V15.2614C25.8411 15.3144 25.7384 15.3641 25.5859 15.4105C25.4368 15.4536 25.2661 15.4917 25.0739 15.5249C24.8816 15.5547 24.6944 15.5829 24.5121 15.6094C24.3298 15.6326 24.1773 15.6525 24.0547 15.669C23.7663 15.7055 23.5028 15.7668 23.2642 15.853C23.0289 15.9392 22.84 16.0634 22.6974 16.2259C22.5582 16.3849 22.4886 16.5971 22.4886 16.8622C22.4886 17.2301 22.6245 17.5085 22.8963 17.6974C23.1681 17.883 23.5144 17.9759 23.9354 17.9759ZM25.1037 10.3097H23.9304L23.8906 9.29545C24.242 9.27888 24.4905 9.23248 24.6364 9.15625C24.7822 9.0767 24.8535 8.96236 24.8501 8.81321C24.8535 8.63423 24.7524 8.50663 24.5469 8.4304C24.3447 8.35417 24.0978 8.31605 23.8061 8.31605L23.8509 7.49574C24.6032 7.49574 25.1733 7.61506 25.5611 7.85369C25.9522 8.09233 26.1461 8.41383 26.1428 8.81818C26.1461 9.14631 26.0384 9.38826 25.8196 9.54403C25.6042 9.6965 25.3655 9.79261 25.1037 9.83239V10.3097ZM29.3606 19V11.3636H30.8471V19H29.3606ZM30.1113 10.1854C29.8528 10.1854 29.6307 10.0992 29.4451 9.92685C29.2628 9.75118 29.1717 9.54238 29.1717 9.30043C29.1717 9.05516 29.2628 8.84635 29.4451 8.67401C29.6307 8.49834 29.8528 8.41051 30.1113 8.41051C30.3699 8.41051 30.5903 8.49834 30.7725 8.67401C30.9582 8.84635 31.051 9.05516 31.051 9.30043C31.051 9.54238 30.9582 9.75118 30.7725 9.92685C30.5903 10.0992 30.3699 10.1854 30.1113 10.1854ZM42.2743 13.228L40.927 13.4666C40.8707 13.2943 40.7812 13.1302 40.6586 12.9744C40.5392 12.8187 40.3768 12.6911 40.1713 12.5916C39.9659 12.4922 39.709 12.4425 39.4007 12.4425C38.9798 12.4425 38.6285 12.5369 38.3468 12.7259C38.065 12.9115 37.9242 13.1518 37.9242 13.4467C37.9242 13.7019 38.0186 13.9074 38.2076 14.0632C38.3965 14.219 38.7014 14.3466 39.1223 14.446L40.3354 14.7244C41.0381 14.8868 41.5617 15.1371 41.9064 15.4751C42.2511 15.8132 42.4235 16.2524 42.4235 16.7926C42.4235 17.25 42.2909 17.6577 42.0257 18.0156C41.7639 18.3703 41.3977 18.6487 40.927 18.8509C40.4597 19.053 39.9178 19.1541 39.3013 19.1541C38.4462 19.1541 37.7485 18.9718 37.2083 18.6072C36.668 18.2393 36.3366 17.7173 36.214 17.0412L37.6507 16.8224C37.7402 17.197 37.9242 17.4804 38.2026 17.6726C38.481 17.8615 38.8439 17.956 39.2914 17.956C39.7786 17.956 40.168 17.8549 40.4597 17.6527C40.7514 17.4472 40.8972 17.197 40.8972 16.902C40.8972 16.6634 40.8077 16.4628 40.6287 16.3004C40.4531 16.138 40.1829 16.0154 39.8184 15.9325L38.5257 15.6491C37.8132 15.4867 37.2862 15.2282 36.9448 14.8736C36.6067 14.5189 36.4377 14.0698 36.4377 13.5263C36.4377 13.0755 36.5636 12.6811 36.8155 12.343C37.0674 12.005 37.4154 11.7415 37.8596 11.5526C38.3037 11.3603 38.8124 11.2642 39.3858 11.2642C40.2111 11.2642 40.8607 11.4432 41.3347 11.8011C41.8087 12.1558 42.1219 12.6314 42.2743 13.228ZM46.2802 19.169C45.7963 19.169 45.3588 19.0795 44.9677 18.9006C44.5766 18.7183 44.2667 18.4548 44.038 18.1101C43.8126 17.7654 43.6999 17.3428 43.6999 16.8423C43.6999 16.4115 43.7828 16.0568 43.9485 15.7784C44.1142 15.5 44.3379 15.2796 44.6197 15.1172C44.9014 14.9548 45.2163 14.8321 45.5643 14.7493C45.9123 14.6664 46.2669 14.6035 46.6282 14.5604C47.0856 14.5073 47.4568 14.4643 47.7418 14.4311C48.0269 14.3946 48.234 14.3366 48.3633 14.2571C48.4925 14.1776 48.5572 14.0483 48.5572 13.8693V13.8345C48.5572 13.4003 48.4345 13.0639 48.1893 12.8253C47.9473 12.5866 47.5861 12.4673 47.1055 12.4673C46.605 12.4673 46.2106 12.5784 45.9222 12.8004C45.6372 13.0192 45.44 13.2628 45.3306 13.5312L43.9336 13.2131C44.0993 12.7491 44.3413 12.3745 44.6594 12.0895C44.9809 11.8011 45.3505 11.5923 45.7681 11.4631C46.1857 11.3305 46.6249 11.2642 47.0856 11.2642C47.3905 11.2642 47.7137 11.3007 48.055 11.3736C48.3997 11.4432 48.7212 11.5724 49.0195 11.7614C49.3211 11.9503 49.5681 12.2204 49.7603 12.5717C49.9525 12.9197 50.0487 13.3722 50.0487 13.929V19H48.5969V17.956H48.5373C48.4412 18.1482 48.297 18.3371 48.1048 18.5227C47.9125 18.7083 47.6656 18.8625 47.364 18.9851C47.0624 19.1077 46.7011 19.169 46.2802 19.169ZM46.6033 17.9759C47.0143 17.9759 47.3656 17.8946 47.6573 17.7322C47.9523 17.5698 48.176 17.3577 48.3285 17.0959C48.4843 16.8307 48.5621 16.5473 48.5621 16.2457V15.2614C48.5091 15.3144 48.4064 15.3641 48.2539 15.4105C48.1048 15.4536 47.9341 15.4917 47.7418 15.5249C47.5496 15.5547 47.3623 15.5829 47.18 15.6094C46.9978 15.6326 46.8453 15.6525 46.7227 15.669C46.4343 15.7055 46.1708 15.7668 45.9322 15.853C45.6969 15.9392 45.5079 16.0634 45.3654 16.2259C45.2262 16.3849 45.1566 16.5971 45.1566 16.8622C45.1566 17.2301 45.2925 17.5085 45.5643 17.6974C45.8361 17.883 46.1824 17.9759 46.6033 17.9759ZM47.7717 10.3097H46.5984L46.5586 9.29545C46.9099 9.27888 47.1585 9.23248 47.3043 9.15625C47.4502 9.0767 47.5214 8.96236 47.5181 8.81321C47.5214 8.63423 47.4203 8.50663 47.2148 8.4304C47.0127 8.35417 46.7657 8.31605 46.4741 8.31605L46.5188 7.49574C47.2712 7.49574 47.8413 7.61506 48.229 7.85369C48.6201 8.09233 48.814 8.41383 48.8107 8.81818C48.814 9.14631 48.7063 9.38826 48.4876 9.54403C48.2721 9.6965 48.0335 9.79261 47.7717 9.83239V10.3097ZM53.5151 14.4659V19H52.0286V11.3636H53.4554V12.6065H53.5499C53.7256 12.2022 54.0007 11.8774 54.3752 11.6321C54.753 11.3868 55.2286 11.2642 55.802 11.2642C56.3224 11.2642 56.7781 11.3736 57.1692 11.5923C57.5603 11.8078 57.8636 12.1293 58.079 12.5568C58.2944 12.9844 58.4022 13.513 58.4022 14.1428V19H56.9157V14.3217C56.9157 13.7682 56.7715 13.3357 56.4831 13.0241C56.1948 12.7093 55.7987 12.5518 55.2949 12.5518C54.9502 12.5518 54.6436 12.6264 54.3752 12.7756C54.11 12.9247 53.8996 13.1435 53.7438 13.4318C53.5913 13.7169 53.5151 14.0616 53.5151 14.4659Z" fill="black"/>
<line x1="7" y1="52.5" x2="127" y2="52.5" stroke="black" stroke-dasharray="5 5"/>
<path fill-rule="evenodd" clip-rule="evenodd" d="M118 65L118.126 50.2397C118.013 50.4644 117.904 50.6826 117.766 50.9322C117.731 50.9936 117.696 51.0564 117.658 51.122C117.544 51.323 117.415 51.5503 117.269 51.8437C116.825 53.0045 116.535 53.0144 116.311 53.022C116.076 53.0301 115.913 53.0356 115.719 54.3779C115.635 54.9556 114.861 55.3527 114.538 54.9688C114.08 54.4265 113.62 54.8206 113.129 55.2414C112.495 55.7835 111.811 56.3698 111.015 55.0534C110.786 54.6744 110.53 54.2739 110.24 53.819C109.415 52.5231 108.308 50.7863 106.725 47.8522C106.097 46.6889 105.643 47.4027 105.162 48.1586C104.634 48.9873 104.074 49.8665 103.219 48.3779C101.228 44.9121 98.8369 48.3414 97.8183 49.8025C97.5885 50.1321 97.4286 50.3615 97.3588 50.389C97.1365 50.4766 96.8488 50.8514 96.6993 51.1898C96.4662 51.7175 96.1878 49.6199 95.8561 47.1213C95.3189 43.0743 94.642 37.9753 93.7918 41.2749C93.6801 41.7086 93.5629 42.1781 93.4411 42.6658C92.8659 44.9699 92.1889 47.6819 91.5035 48.9579C90.7188 50.4188 89.9452 50.0125 89.2328 49.6384C89.1912 49.6165 89.1498 49.5948 89.1086 49.5736L89.0749 49.5562C88.342 49.1779 87.6786 48.8354 87.2682 48.9736C86.6104 49.1951 86.035 50.0046 85.6741 51.1561C85.6635 51.19 85.6534 51.2234 85.6434 51.2562C85.4992 51.7318 85.399 52.0624 84.5849 51.2677C84.2767 50.9668 83.9012 50.4681 83.4945 49.9279C82.753 48.943 81.9075 47.8201 81.1761 47.506C80.11 47.0481 78.1673 49.5174 75.7475 53.1494C74.9931 54.2815 74.7803 55.3147 74.6124 56.1299C74.4755 56.7947 74.3684 57.3146 74.0219 57.6252C73.9389 57.6996 73.7602 57.5003 73.4909 57.1999C72.7768 56.4034 71.4253 54.896 69.528 55.8939C69.1739 56.0801 68.9897 56.6103 68.8421 57.035C68.784 57.202 68.7316 57.3528 68.6768 57.4599C68.4826 57.8392 68.2252 57.7311 67.9306 57.4814C67.756 57.3333 67.499 56.8905 67.1602 56.3065C66.1178 54.5102 64.3002 51.3779 61.7189 51.3779C61.2189 51.3779 60.601 51.5424 60.2476 52.0354C59.687 52.8175 59.3166 53.6853 58.9874 54.4566C58.4976 55.6044 58.099 56.5383 57.3007 56.6574C57.1346 56.6822 56.9314 56.5904 56.7189 56.3779C55.2189 54.8779 53.7728 52.8648 52.8356 51.2231C52.1762 50.0677 50.5959 47.3552 48.2189 44.3779C47.8155 43.8727 47.704 43.6209 47.5756 43.6119C47.4696 43.6045 47.352 43.7624 47.0492 44.0797C46.7593 44.3835 46.4863 44.6422 46.2254 44.8894C46.0516 45.054 45.8832 45.2136 45.7189 45.3779C45.2189 45.8779 44.6543 46.1862 44.2189 45.8779C44.1113 45.8018 44.0073 45.5076 43.8664 45.1094C43.396 43.7794 42.5149 41.2882 39.7189 41.8779C39.1429 41.9994 38.5069 42.6497 37.9936 43.3384C37.2189 44.3779 36.0701 44.9084 34.7189 43.3779C34.09 42.6656 33.598 41.4926 33.0945 40.2922C32.5162 38.9135 31.9227 37.4985 31.0891 36.7033C29.5937 35.2769 29.2314 35.9706 27.5238 39.2398C27.4507 39.3799 27.375 39.5247 27.2967 39.6742C25.3911 43.3145 22.0095 49.5868 19.5319 53.8469C18.1239 56.2679 17.0229 53.1433 16.0543 50.3949C15.3186 48.307 14.6593 46.4361 14 47.3779V65H118Z" fill="url(#paint0_linear_423_542)"/>
<path d="M14.2811 47C15.8083 44.8183 17.3355 57.729 19.8131 53.4689C22.2906 49.2089 25.6722 42.9365 27.5779 39.2963C29.4835 35.656 29.8108 34.8379 31.3702 36.3254C32.9296 37.8129 33.6489 41.4695 35 43C36.3512 44.5305 37.5 44 38.2747 42.9605C38.788 42.2717 39.424 41.6215 40 41.5C43.6332 40.7338 44.0331 45.1695 44.5 45.5C44.9354 45.8082 45.5 45.5 46 45C46.411 44.589 46.8473 44.208 47.3304 43.7018C48 43 47.7637 43.0778 48.5 44C50.877 46.9772 52.4573 49.6898 53.1168 50.8451C54.0539 52.4869 55.5 54.5 57 56C57.2125 56.2125 57.4157 56.3043 57.5818 56.2795C58.9167 56.0803 59.1338 53.6033 60.5287 51.6575C60.8822 51.1644 61.5 51 62 51C65.4205 51 67.5 56.5 68.2117 57.1034C68.5063 57.3532 68.7637 57.4613 68.9579 57.0819C69.1521 56.7026 69.3158 55.7754 69.8091 55.5159C72.422 54.1416 73.9998 57.5191 74.3031 57.2472C75.0744 56.5557 74.6592 54.8267 76.0286 52.7715C78.4484 49.1395 80.3911 46.6702 81.4572 47.128C82.5898 47.6144 83.9959 50.0402 84.8661 50.8898C85.7363 51.7393 85.7908 51.303 85.9553 50.7782C86.3161 49.6267 86.8916 48.8172 87.5494 48.5957C87.966 48.4554 88.6435 48.8106 89.3897 49.1957C90.136 49.5808 90.9541 50.1262 91.7846 48.58C92.6152 47.0338 93.4333 43.3795 94.0729 40.897C95.448 35.5601 96.3698 52.1944 96.9805 50.8119C97.1299 50.4734 97.4176 50.0987 97.6399 50.0111C98.019 49.8617 101.06 43.7523 103.5 48C105.135 50.8463 105.69 45.0356 107.006 47.4743C109.145 51.4384 110.414 53.2169 111.296 54.6755C112.709 57.0135 113.773 53.3496 114.819 54.5909C115.142 54.9748 115.917 54.5777 116 54C116.378 51.3824 116.638 53.8483 117.55 51.4658C117.744 51.0765 117.908 50.8038 118.047 50.5542C118.185 50.3047 118.295 50.0865 118.407 49.8617" stroke="#FE2C55" stroke-linecap="round"/>
<circle cx="118.5" cy="49.5" r="2.5" fill="#FE2C55"/>
<defs>
<filter id="filter0_d_423_542" x="0" y="0" width="134.5" height="110.5" filterUnits="userSpaceOnUse" color-interpolation-filters="sRGB">
<feFlood flood-opacity="0" result="BackgroundImageFix"/>
<feColorMatrix in="SourceAlpha" type="matrix" values="0 0 0 0 0 0 0 0 0 0 0 0 0 0 0 0 0 0 127 0" result="hardAlpha"/>
<feOffset dx="0.5" dy="0.5"/>
<feComposite in2="hardAlpha" operator="out"/>
<feColorMatrix type="matrix" values="0 0 0 0 0.509804 0 0 0 0 0.509804 0 0 0 0 0.509804 0 0 0 1 0"/>
<feBlend mode="normal" in2="BackgroundImageFix" result="effect1_dropShadow_423_542"/>
<feBlend mode="normal" in="SourceGraphic" in2="effect1_dropShadow_423_542" result="shape"/>
</filter>
<linearGradient id="paint0_linear_423_542" x1="66.0629" y1="36" x2="66.0629" y2="65" gradientUnits="userSpaceOnUse">
<stop stop-color="#FE2C55" stop-opacity="0.5"/>
<stop offset="1" stop-color="white" stop-opacity="0.1"/>
</linearGradient>
</defs>
</svg>
