<svg width="363" height="370" viewBox="0 0 363 370" fill="none" xmlns="http://www.w3.org/2000/svg">
<path d="M0 25C0 11.1929 11.1929 0 25 0H260C273.807 0 285 11.1929 285 25V370H0V25Z" fill="url(#paint0_linear_161_47)"/>
<path opacity="0.3" d="M285 370H173.003C173.002 369.833 173 369.667 173 369.5C173 307.535 223.098 257.272 285 257.003V370Z" fill="url(#paint1_linear_161_47)"/>
<path d="M170 140C172.761 140 175 142.239 175 145V266C172.239 266 170 268.239 170 271C170 273.761 172.239 276 175 276V310C175 312.761 172.761 315 170 315H30C27.2386 315 25 312.761 25 310V276C27.7614 276 30 273.761 30 271C30 268.239 27.7614 266 25 266V145C25 142.239 27.2386 140 30 140H170Z" fill="url(#paint2_linear_161_47)"/>
<line x1="31" y1="271" x2="169" y2="271" stroke="#C300FF" stroke-width="2" stroke-dasharray="5 5"/>
<path d="M72.1875 214.812C74.9792 214.812 77.4583 215.344 79.625 216.406C81.8125 217.469 83.5312 219.031 84.7812 221.094C86.0312 223.156 86.6562 225.698 86.6562 228.719C86.6562 232.01 85.9688 234.854 84.5938 237.25C83.2396 239.625 81.2083 241.448 78.5 242.719C75.8125 243.99 72.4583 244.625 68.4375 244.625C66.0417 244.625 63.7812 244.417 61.6562 244C59.5521 243.604 57.7083 242.99 56.125 242.156V233.812C57.7083 234.646 59.6042 235.354 61.8125 235.938C64.0417 236.5 66.1354 236.781 68.0938 236.781C70.0104 236.781 71.625 236.531 72.9375 236.031C74.25 235.51 75.2396 234.719 75.9062 233.656C76.5938 232.573 76.9375 231.198 76.9375 229.531C76.9375 227.302 76.1875 225.594 74.6875 224.406C73.1875 223.219 70.8854 222.625 67.7812 222.625C66.5938 222.625 65.3542 222.74 64.0625 222.969C62.7917 223.198 61.7292 223.427 60.875 223.656L57.0312 221.594L58.75 198.312H83.5312V206.5H67.2188L66.375 215.469C67.0833 215.323 67.8542 215.177 68.6875 215.031C69.5208 214.885 70.6875 214.812 72.1875 214.812ZM101.095 197.656C104.678 197.656 107.397 198.906 109.251 201.406C111.105 203.906 112.033 207.417 112.033 211.938C112.033 216.458 111.158 219.99 109.408 222.531C107.658 225.073 104.887 226.344 101.095 226.344C97.5742 226.344 94.8971 225.073 93.0638 222.531C91.2304 219.99 90.3138 216.458 90.3138 211.938C90.3138 207.417 91.1679 203.906 92.8763 201.406C94.6054 198.906 97.345 197.656 101.095 197.656ZM101.158 204.188C100.137 204.188 99.3867 204.833 98.9075 206.125C98.4283 207.417 98.1888 209.375 98.1888 212C98.1888 214.625 98.4283 216.594 98.9075 217.906C99.3867 219.219 100.137 219.875 101.158 219.875C102.178 219.875 102.928 219.229 103.408 217.938C103.908 216.625 104.158 214.646 104.158 212C104.158 209.375 103.908 207.417 103.408 206.125C102.928 204.833 102.178 204.188 101.158 204.188ZM133.533 198.312L108.189 244H100.689L126.033 198.312H133.533ZM133.095 215.906C136.678 215.906 139.397 217.156 141.251 219.656C143.105 222.156 144.033 225.667 144.033 230.188C144.033 234.688 143.158 238.208 141.408 240.75C139.658 243.292 136.887 244.562 133.095 244.562C129.574 244.562 126.897 243.292 125.064 240.75C123.23 238.208 122.314 234.688 122.314 230.188C122.314 225.667 123.168 222.156 124.876 219.656C126.605 217.156 129.345 215.906 133.095 215.906ZM133.158 222.438C132.137 222.438 131.387 223.083 130.908 224.375C130.428 225.667 130.189 227.625 130.189 230.25C130.189 232.875 130.428 234.844 130.908 236.156C131.387 237.469 132.137 238.125 133.158 238.125C134.178 238.125 134.928 237.479 135.408 236.188C135.908 234.875 136.158 232.896 136.158 230.25C136.158 227.625 135.908 225.667 135.408 224.375C134.928 223.083 134.178 222.438 133.158 222.438Z" fill="white" fill-opacity="0.2"/>
<path d="M62.3551 161.995V160.727H68.3281V161.995H66.1016V168H64.5817V161.995H62.3551ZM70.5962 164.847V168H69.0834V160.727H70.5536V163.508H70.6175C70.7406 163.186 70.9394 162.934 71.2141 162.751C71.4887 162.567 71.8331 162.474 72.2474 162.474C72.6262 162.474 72.9565 162.557 73.2382 162.723C73.5223 162.886 73.7425 163.122 73.8987 163.43C74.0573 163.735 74.1355 164.101 74.1331 164.527V168H72.6203V164.797C72.6227 164.461 72.5375 164.199 72.3646 164.012C72.1942 163.825 71.9551 163.732 71.6473 163.732C71.4413 163.732 71.259 163.775 71.1004 163.863C70.9442 163.951 70.8211 164.078 70.7311 164.246C70.6435 164.412 70.5985 164.612 70.5962 164.847ZM76.679 168.103C76.331 168.103 76.0209 168.043 75.7486 167.922C75.4764 167.799 75.2609 167.618 75.1023 167.379C74.9461 167.137 74.8679 166.836 74.8679 166.477C74.8679 166.174 74.9236 165.919 75.0348 165.713C75.1461 165.507 75.2976 165.341 75.4894 165.216C75.6811 165.09 75.8989 164.996 76.1428 164.932C76.389 164.868 76.6471 164.823 76.9169 164.797C77.2342 164.764 77.4899 164.733 77.684 164.705C77.8781 164.674 78.019 164.629 78.1066 164.57C78.1942 164.51 78.238 164.423 78.238 164.307V164.286C78.238 164.061 78.1669 163.887 78.0249 163.763C77.8852 163.64 77.6864 163.579 77.4283 163.579C77.156 163.579 76.9394 163.639 76.7784 163.76C76.6175 163.878 76.5109 164.027 76.4588 164.207L75.0597 164.094C75.1307 163.762 75.2704 163.476 75.4787 163.234C75.6871 162.991 75.9558 162.804 76.2848 162.673C76.6163 162.541 76.9998 162.474 77.4354 162.474C77.7384 162.474 78.0284 162.51 78.3054 162.581C78.5848 162.652 78.8322 162.762 79.0476 162.911C79.2654 163.06 79.4371 163.252 79.5625 163.487C79.688 163.719 79.7507 163.997 79.7507 164.321V168H78.3161V167.244H78.2735C78.1859 167.414 78.0687 167.564 77.9219 167.695C77.7751 167.822 77.5988 167.923 77.3928 167.996C77.1868 168.067 76.9489 168.103 76.679 168.103ZM77.1123 167.059C77.3348 167.059 77.5313 167.015 77.7017 166.928C77.8722 166.838 78.006 166.717 78.103 166.565C78.2001 166.414 78.2486 166.242 78.2486 166.05V165.472C78.2013 165.502 78.1362 165.531 78.0533 165.557C77.9728 165.58 77.8817 165.603 77.7799 165.624C77.6781 165.643 77.5763 165.661 77.4745 165.678C77.3727 165.692 77.2803 165.705 77.1975 165.717C77.0199 165.743 76.8649 165.784 76.7323 165.841C76.5997 165.898 76.4967 165.975 76.4233 166.072C76.3499 166.166 76.3132 166.285 76.3132 166.427C76.3132 166.633 76.3878 166.79 76.537 166.899C76.6885 167.006 76.8802 167.059 77.1123 167.059ZM76.9667 161.842L75.8836 160.227H77.2792L78.0355 161.842H76.9667ZM82.2372 164.847V168H80.7244V162.545H82.1662V163.508H82.2301C82.3508 163.191 82.5532 162.94 82.8373 162.755C83.1214 162.568 83.4659 162.474 83.8707 162.474C84.2495 162.474 84.5797 162.557 84.8615 162.723C85.1432 162.889 85.3622 163.125 85.5184 163.433C85.6747 163.739 85.7528 164.103 85.7528 164.527V168H84.24V164.797C84.2424 164.463 84.1572 164.203 83.9843 164.016C83.8115 163.826 83.5736 163.732 83.2706 163.732C83.067 163.732 82.887 163.775 82.7308 163.863C82.5769 163.951 82.4562 164.078 82.3686 164.246C82.2833 164.412 82.2395 164.612 82.2372 164.847ZM88.2579 164.847V168H86.7451V160.727H88.2153V163.508H88.2792C88.4023 163.186 88.6012 162.934 88.8758 162.751C89.1504 162.567 89.4949 162.474 89.9092 162.474C90.288 162.474 90.6182 162.557 90.8999 162.723C91.184 162.886 91.4042 163.122 91.5604 163.43C91.7191 163.735 91.7972 164.101 91.7948 164.527V168H90.282V164.797C90.2844 164.461 90.1992 164.199 90.0264 164.012C89.8559 163.825 89.6168 163.732 89.309 163.732C89.1031 163.732 88.9208 163.775 88.7621 163.863C88.6059 163.951 88.4828 164.078 88.3928 164.246C88.3052 164.412 88.2603 164.612 88.2579 164.847ZM99.985 162.545L98.0781 168H96.3735L94.4665 162.545H96.0646L97.1974 166.448H97.2542L98.3835 162.545H99.985ZM100.559 168V162.545H102.072V168H100.559ZM101.319 161.842C101.094 161.842 100.901 161.768 100.74 161.619C100.582 161.467 100.502 161.286 100.502 161.075C100.502 160.867 100.582 160.688 100.74 160.539C100.901 160.388 101.094 160.312 101.319 160.312C101.544 160.312 101.736 160.388 101.894 160.539C102.055 160.688 102.136 160.867 102.136 161.075C102.136 161.286 102.055 161.467 101.894 161.619C101.736 161.768 101.544 161.842 101.319 161.842ZM105.57 168.107C105.008 168.107 104.526 167.993 104.121 167.766C103.718 167.536 103.408 167.212 103.19 166.793C102.973 166.371 102.864 165.873 102.864 165.298C102.864 164.737 102.973 164.244 103.19 163.82C103.408 163.397 103.715 163.066 104.11 162.83C104.508 162.593 104.974 162.474 105.509 162.474C105.869 162.474 106.204 162.532 106.514 162.648C106.827 162.762 107.099 162.934 107.331 163.163C107.565 163.393 107.748 163.682 107.878 164.03C108.008 164.375 108.073 164.78 108.073 165.244V165.66H103.467V164.722H106.649C106.649 164.504 106.602 164.312 106.507 164.143C106.412 163.975 106.281 163.844 106.113 163.749C105.947 163.652 105.754 163.604 105.534 163.604C105.304 163.604 105.101 163.657 104.923 163.763C104.748 163.868 104.611 164.009 104.511 164.186C104.412 164.361 104.361 164.557 104.359 164.772V165.663C104.359 165.933 104.408 166.166 104.508 166.363C104.61 166.559 104.753 166.711 104.937 166.817C105.122 166.924 105.341 166.977 105.594 166.977C105.763 166.977 105.916 166.954 106.056 166.906C106.196 166.859 106.315 166.788 106.415 166.693C106.514 166.598 106.59 166.482 106.642 166.345L108.041 166.438C107.97 166.774 107.825 167.067 107.604 167.318C107.387 167.567 107.105 167.761 106.759 167.901C106.416 168.038 106.019 168.107 105.57 168.107ZM106.187 161.892L105.474 161.026L104.76 161.892H103.471V161.842L104.909 160.28H106.035L107.477 161.842V161.892H106.187ZM110.373 164.847V168H108.86V162.545H110.302V163.508H110.366C110.487 163.191 110.689 162.94 110.973 162.755C111.257 162.568 111.602 162.474 112.007 162.474C112.385 162.474 112.716 162.557 112.997 162.723C113.279 162.889 113.498 163.125 113.654 163.433C113.811 163.739 113.889 164.103 113.889 164.527V168H112.376V164.797C112.378 164.463 112.293 164.203 112.12 164.016C111.947 163.826 111.71 163.732 111.406 163.732C111.203 163.732 111.023 163.775 110.867 163.863C110.713 163.951 110.592 164.078 110.505 164.246C110.419 164.412 110.375 164.612 110.373 164.847ZM116.995 168V162.545H118.437V163.508H118.501C118.615 163.188 118.804 162.936 119.069 162.751C119.335 162.567 119.652 162.474 120.021 162.474C120.395 162.474 120.714 162.568 120.976 162.755C121.239 162.94 121.414 163.191 121.502 163.508H121.559C121.67 163.195 121.871 162.946 122.162 162.759C122.456 162.569 122.803 162.474 123.203 162.474C123.712 162.474 124.125 162.637 124.442 162.961C124.762 163.283 124.922 163.74 124.922 164.332V168H123.412V164.63C123.412 164.327 123.332 164.1 123.171 163.948C123.01 163.797 122.809 163.721 122.567 163.721C122.293 163.721 122.078 163.808 121.924 163.984C121.771 164.156 121.694 164.385 121.694 164.669V168H120.227V164.598C120.227 164.33 120.15 164.117 119.996 163.959C119.845 163.8 119.645 163.721 119.396 163.721C119.228 163.721 119.076 163.763 118.942 163.849C118.809 163.932 118.704 164.049 118.625 164.2C118.547 164.349 118.508 164.525 118.508 164.726V168H116.995ZM130.732 162.226H131.634C131.634 162.827 131.491 163.296 131.204 163.632C130.918 163.966 130.457 164.133 129.823 164.133V163.529C130.074 163.529 130.264 163.477 130.395 163.373C130.525 163.266 130.614 163.116 130.661 162.922C130.708 162.728 130.732 162.496 130.732 162.226ZM128.381 168.107C127.829 168.107 127.352 167.989 126.95 167.755C126.55 167.518 126.241 167.189 126.023 166.768C125.805 166.344 125.696 165.853 125.696 165.294C125.696 164.731 125.805 164.238 126.023 163.817C126.241 163.393 126.55 163.064 126.95 162.83C127.352 162.593 127.829 162.474 128.381 162.474C128.933 162.474 129.409 162.593 129.809 162.83C130.211 163.064 130.521 163.393 130.739 163.817C130.957 164.238 131.066 164.731 131.066 165.294C131.066 165.853 130.957 166.344 130.739 166.768C130.521 167.189 130.211 167.518 129.809 167.755C129.409 167.989 128.933 168.107 128.381 168.107ZM128.388 166.935C128.639 166.935 128.849 166.864 129.017 166.722C129.185 166.577 129.311 166.381 129.397 166.132C129.484 165.884 129.528 165.601 129.528 165.283C129.528 164.966 129.484 164.683 129.397 164.435C129.311 164.186 129.185 163.99 129.017 163.845C128.849 163.701 128.639 163.629 128.388 163.629C128.135 163.629 127.922 163.701 127.749 163.845C127.579 163.99 127.449 164.186 127.362 164.435C127.277 164.683 127.234 164.966 127.234 165.283C127.234 165.601 127.277 165.884 127.362 166.132C127.449 166.381 127.579 166.577 127.749 166.722C127.922 166.864 128.135 166.935 128.388 166.935ZM127.838 161.842L128.591 160.227H129.99L128.907 161.842H127.838ZM132.035 168V162.545H133.548V168H132.035ZM132.795 161.842C132.57 161.842 132.377 161.768 132.216 161.619C132.057 161.467 131.978 161.286 131.978 161.075C131.978 160.867 132.057 160.688 132.216 160.539C132.377 160.388 132.57 160.312 132.795 160.312C133.02 160.312 133.212 160.388 133.37 160.539C133.531 160.688 133.612 160.867 133.612 161.075C133.612 161.286 133.531 161.467 133.37 161.619C133.212 161.768 133.02 161.842 132.795 161.842Z" fill="white" fill-opacity="0.8"/>
<path d="M42.5 176.5H57.5C57.9602 176.5 58.3333 176.873 58.3333 177.333V190.667C58.3333 191.127 57.9602 191.5 57.5 191.5H42.5C42.0398 191.5 41.6667 191.127 41.6667 190.667V177.333C41.6667 176.873 42.0398 176.5 42.5 176.5ZM45.8333 184.833V188.167H47.5V184.833H45.8333ZM49.1667 179.833V188.167H50.8333V179.833H49.1667ZM52.5 182.333V188.167H54.1667V182.333H52.5Z" fill="black" fill-opacity="0.1"/>
<path d="M145.667 176.5C142.445 176.5 139.833 179.112 139.833 182.333C139.833 185.555 142.445 188.167 145.667 188.167H146.559C146.52 187.894 146.5 187.616 146.5 187.333C146.5 187.05 146.52 186.772 146.559 186.5H145.667C143.365 186.5 141.5 184.634 141.5 182.333C141.5 180.032 143.365 178.167 145.667 178.167H152.333C154.635 178.167 156.5 180.032 156.5 182.333C156.5 182.619 156.471 182.898 156.417 183.167C156.904 183.646 157.309 184.209 157.605 184.833C157.965 184.076 158.167 183.228 158.167 182.333C158.167 179.112 155.555 176.5 152.333 176.5H145.667ZM148.167 187.333C148.167 185.032 150.032 183.167 152.333 183.167C154.635 183.167 156.5 185.032 156.5 187.333C156.5 188.183 156.246 188.972 155.81 189.631L157.923 191.744L156.744 192.923L154.631 190.81C153.973 191.246 153.183 191.5 152.333 191.5C150.032 191.5 148.167 189.634 148.167 187.333Z" fill="black" fill-opacity="0.1"/>
<path d="M112.667 244.5C109.445 244.5 106.833 247.112 106.833 250.333C106.833 253.555 109.445 256.167 112.667 256.167H113.559C113.52 255.894 113.5 255.616 113.5 255.333C113.5 255.05 113.52 254.772 113.559 254.5H112.667C110.365 254.5 108.5 252.634 108.5 250.333C108.5 248.032 110.365 246.167 112.667 246.167H119.333C121.635 246.167 123.5 248.032 123.5 250.333C123.5 250.619 123.471 250.898 123.417 251.167C123.904 251.646 124.309 252.209 124.605 252.833C124.965 252.076 125.167 251.228 125.167 250.333C125.167 247.112 122.555 244.5 119.333 244.5H112.667ZM115.167 255.333C115.167 253.032 117.032 251.167 119.333 251.167C121.635 251.167 123.5 253.032 123.5 255.333C123.5 256.183 123.246 256.972 122.81 257.631L124.923 259.744L123.744 260.923L121.631 258.81C120.973 259.246 120.183 259.5 119.333 259.5C117.032 259.5 115.167 257.634 115.167 255.333Z" fill="black" fill-opacity="0.1"/>
<path d="M50 243.667C54.6 243.667 58.3333 247.4 58.3333 252C58.3333 256.6 54.6 260.333 50 260.333C45.4 260.333 41.6667 256.6 41.6667 252C41.6667 247.4 45.4 243.667 50 243.667ZM50 247.833C47.7 247.833 45.8333 249.7 45.8333 252C45.8333 254.3 47.7 256.167 50 256.167C51.5162 256.167 52.8442 255.355 53.5732 254.144L52.1441 253.287C51.707 254.014 50.9105 254.5 50 254.5C48.6187 254.5 47.5 253.381 47.5 252C47.5 250.619 48.6187 249.5 50 249.5C50.9109 249.5 51.7076 249.986 52.1446 250.714L53.5732 249.856C52.8442 248.645 51.5162 247.833 50 247.833Z" fill="black" fill-opacity="0.1"/>
<path d="M116 208.667C120.6 208.667 124.333 212.4 124.333 217C124.333 221.6 120.6 225.333 116 225.333C111.4 225.333 107.667 221.6 107.667 217C107.667 212.4 111.4 208.667 116 208.667ZM116 212.833C113.7 212.833 111.833 214.7 111.833 217C111.833 219.3 113.7 221.167 116 221.167C117.516 221.167 118.844 220.355 119.573 219.144L118.144 218.287C117.707 219.014 116.91 219.5 116 219.5C114.619 219.5 113.5 218.381 113.5 217C113.5 215.619 114.619 214.5 116 214.5C116.911 214.5 117.708 214.986 118.145 215.714L119.573 214.856C118.844 213.645 117.516 212.833 116 212.833Z" fill="black" fill-opacity="0.1"/>
<path d="M155.736 250.75L156.738 251.351C156.935 251.469 156.999 251.725 156.881 251.923C156.845 251.981 156.796 252.03 156.738 252.066L149 256.708L141.262 252.066C141.065 251.947 141.001 251.691 141.119 251.494C141.154 251.435 141.203 251.386 141.262 251.351L142.264 250.75L149 254.792L155.736 250.75ZM155.736 254.667L156.738 255.268C156.935 255.386 156.999 255.642 156.881 255.839C156.845 255.898 156.796 255.947 156.738 255.982L149.429 260.368C149.165 260.526 148.835 260.526 148.571 260.368L141.262 255.982C141.065 255.864 141.001 255.608 141.119 255.411C141.154 255.352 141.203 255.303 141.262 255.268L142.264 254.667L149 258.708L155.736 254.667ZM149.429 243.091L156.738 247.476C156.935 247.594 156.999 247.85 156.881 248.048C156.845 248.106 156.796 248.155 156.738 248.191L149 252.833L141.262 248.191C141.065 248.072 141.001 247.816 141.119 247.619C141.154 247.56 141.203 247.511 141.262 247.476L148.571 243.091C148.835 242.932 149.165 242.932 149.429 243.091Z" fill="black" fill-opacity="0.1"/>
<path d="M89.7361 215.75L90.7378 216.351C90.9351 216.469 90.9991 216.725 90.8807 216.923C90.8455 216.981 90.7964 217.03 90.7378 217.066L82.9999 221.708L75.2621 217.066C75.0648 216.947 75.0008 216.691 75.1192 216.494C75.1543 216.435 75.2034 216.386 75.2621 216.351L76.2638 215.75L82.9999 219.792L89.7361 215.75ZM89.7361 219.667L90.7378 220.268C90.9351 220.386 90.9991 220.642 90.8807 220.839C90.8455 220.898 90.7964 220.947 90.7378 220.982L83.4287 225.368C83.1647 225.526 82.8351 225.526 82.5712 225.368L75.2621 220.982C75.0648 220.864 75.0008 220.608 75.1192 220.411C75.1543 220.352 75.2034 220.303 75.2621 220.268L76.2638 219.667L82.9999 223.708L89.7361 219.667ZM83.4287 208.091L90.7378 212.476C90.9351 212.594 90.9991 212.85 90.8807 213.048C90.8455 213.106 90.7964 213.155 90.7378 213.191L82.9999 217.833L75.2621 213.191C75.0648 213.072 75.0008 212.816 75.1192 212.619C75.1543 212.56 75.2034 212.511 75.2621 212.476L82.5712 208.091C82.8351 207.932 83.1647 207.932 83.4287 208.091Z" fill="black" fill-opacity="0.1"/>
<path d="M143.167 209.5V222.833H156.5V224.5H141.5V209.5H143.167ZM155.616 211.949L157.384 213.717L152.333 218.768L149.833 216.267L146.551 219.551L144.783 217.783L149.833 212.732L152.333 215.232L155.616 211.949Z" fill="black" fill-opacity="0.1"/>
<path d="M77.1667 244.5V257.833H90.5V259.5H75.5V244.5H77.1667ZM89.6161 246.949L91.3839 248.717L86.3333 253.768L83.8333 251.267L80.5506 254.551L78.7828 252.783L83.8333 247.732L86.3333 250.232L89.6161 246.949Z" fill="black" fill-opacity="0.1"/>
<path d="M75.5 184H78.8333V191.5H75.5V184ZM87.1667 180.667H90.5V191.5H87.1667V180.667ZM81.3333 175.667H84.6667V191.5H81.3333V175.667Z" fill="black" fill-opacity="0.1"/>
<path d="M115.167 175.708V184.833H124.292C123.874 189.044 120.321 192.333 116 192.333C111.398 192.333 107.667 188.602 107.667 184C107.667 179.679 110.956 176.126 115.167 175.708ZM116.833 174.452C121.461 174.851 125.149 178.539 125.548 183.167H116.833V174.452Z" fill="black" fill-opacity="0.1"/>
<path d="M84.5938 220.406C85.9896 220.406 87.2292 220.672 88.3125 221.203C89.4062 221.734 90.2656 222.516 90.8906 223.547C91.5156 224.578 91.8281 225.849 91.8281 227.359C91.8281 229.005 91.4844 230.427 90.7969 231.625C90.1198 232.812 89.1042 233.724 87.75 234.359C86.4062 234.995 84.7292 235.312 82.7188 235.312C81.5208 235.312 80.3906 235.208 79.3281 235C78.276 234.802 77.3542 234.495 76.5625 234.078V229.906C77.3542 230.323 78.3021 230.677 79.4062 230.969C80.5208 231.25 81.5677 231.391 82.5469 231.391C83.5052 231.391 84.3125 231.266 84.9688 231.016C85.625 230.755 86.1198 230.359 86.4531 229.828C86.7969 229.286 86.9688 228.599 86.9688 227.766C86.9688 226.651 86.5938 225.797 85.8438 225.203C85.0938 224.609 83.9427 224.312 82.3906 224.312C81.7969 224.312 81.1771 224.37 80.5312 224.484C79.8958 224.599 79.3646 224.714 78.9375 224.828L77.0156 223.797L77.875 212.156H90.2656V216.25H82.1094L81.6875 220.734C82.0417 220.661 82.4271 220.589 82.8438 220.516C83.2604 220.443 83.8438 220.406 84.5938 220.406ZM99.0475 211.828C100.839 211.828 102.199 212.453 103.126 213.703C104.053 214.953 104.516 216.708 104.516 218.969C104.516 221.229 104.079 222.995 103.204 224.266C102.329 225.536 100.943 226.172 99.0475 226.172C97.2871 226.172 95.9485 225.536 95.0319 224.266C94.1152 222.995 93.6569 221.229 93.6569 218.969C93.6569 216.708 94.084 214.953 94.9381 213.703C95.8027 212.453 97.1725 211.828 99.0475 211.828ZM99.0788 215.094C98.5683 215.094 98.1933 215.417 97.9538 216.062C97.7142 216.708 97.5944 217.688 97.5944 219C97.5944 220.312 97.7142 221.297 97.9538 221.953C98.1933 222.609 98.5683 222.938 99.0788 222.938C99.5892 222.938 99.9642 222.615 100.204 221.969C100.454 221.312 100.579 220.323 100.579 219C100.579 217.688 100.454 216.708 100.204 216.062C99.9642 215.417 99.5892 215.094 99.0788 215.094ZM115.266 212.156L102.594 235H98.8444L111.516 212.156H115.266ZM115.048 220.953C116.839 220.953 118.199 221.578 119.126 222.828C120.053 224.078 120.516 225.833 120.516 228.094C120.516 230.344 120.079 232.104 119.204 233.375C118.329 234.646 116.943 235.281 115.048 235.281C113.287 235.281 111.949 234.646 111.032 233.375C110.115 232.104 109.657 230.344 109.657 228.094C109.657 225.833 110.084 224.078 110.938 222.828C111.803 221.578 113.173 220.953 115.048 220.953ZM115.079 224.219C114.568 224.219 114.193 224.542 113.954 225.188C113.714 225.833 113.594 226.812 113.594 228.125C113.594 229.438 113.714 230.422 113.954 231.078C114.193 231.734 114.568 232.062 115.079 232.062C115.589 232.062 115.964 231.74 116.204 231.094C116.454 230.438 116.579 229.448 116.579 228.125C116.579 226.812 116.454 225.833 116.204 225.188C115.964 224.542 115.589 224.219 115.079 224.219Z" fill="white"/>
<path d="M66 293.5C66 286.596 71.5964 281 78.5 281H121.5C128.404 281 134 286.596 134 293.5C134 300.404 128.404 306 121.5 306H78.5C71.5964 306 66 300.404 66 293.5Z" fill="white"/>
<path d="M78.5 279.5H121.5C129.232 279.5 135.5 285.768 135.5 293.5C135.5 301.232 129.232 307.5 121.5 307.5H78.5C70.768 307.5 64.5 301.232 64.5 293.5C64.5 285.768 70.768 279.5 78.5 279.5Z" stroke="white"/>
<path d="M83.0327 289.273V298H81.6264L77.5142 292.055H77.4418V298H75.8608V289.273H77.2756L81.3835 295.222H81.4602V289.273H83.0327ZM85.9898 294.165V298H84.4471V289.273H85.9557V292.567H86.0324C86.1858 292.197 86.423 291.906 86.744 291.693C87.0679 291.477 87.4798 291.369 87.9798 291.369C88.4344 291.369 88.8307 291.464 89.1687 291.655C89.5068 291.845 89.7682 292.124 89.9528 292.49C90.1403 292.857 90.2341 293.304 90.2341 293.832V298H88.6915V294.071C88.6915 293.631 88.5778 293.288 88.3506 293.044C88.1261 292.797 87.8108 292.673 87.4045 292.673C87.1318 292.673 86.8875 292.733 86.6716 292.852C86.4585 292.969 86.2909 293.138 86.1687 293.359C86.0494 293.581 85.9898 293.849 85.9898 294.165ZM93.45 298.132C93.0353 298.132 92.6617 298.058 92.3293 297.911C91.9998 297.76 91.7384 297.538 91.5452 297.246C91.3549 296.953 91.2597 296.592 91.2597 296.163C91.2597 295.794 91.3279 295.489 91.4642 295.247C91.6006 295.006 91.7867 294.812 92.0225 294.668C92.2583 294.523 92.5239 294.413 92.8194 294.339C93.1177 294.263 93.4259 294.207 93.7441 294.173C94.1276 294.134 94.4387 294.098 94.6773 294.067C94.916 294.033 95.0892 293.982 95.1972 293.913C95.308 293.842 95.3634 293.733 95.3634 293.585V293.56C95.3634 293.239 95.2682 292.99 95.0779 292.814C94.8875 292.638 94.6134 292.55 94.2554 292.55C93.8776 292.55 93.5779 292.632 93.3563 292.797C93.1375 292.962 92.9898 293.156 92.9131 293.381L91.4728 293.176C91.5864 292.778 91.7739 292.446 92.0353 292.179C92.2966 291.909 92.6162 291.707 92.9941 291.574C93.3719 291.438 93.7895 291.369 94.2469 291.369C94.5623 291.369 94.8762 291.406 95.1887 291.48C95.5012 291.554 95.7867 291.676 96.0452 291.847C96.3037 292.014 96.5111 292.243 96.6674 292.533C96.8265 292.822 96.906 293.185 96.906 293.619V298H95.4231V297.101H95.3719C95.2782 297.283 95.1461 297.453 94.9756 297.612C94.808 297.768 94.5963 297.895 94.3407 297.991C94.0878 298.085 93.791 298.132 93.45 298.132ZM93.8506 296.999C94.1603 296.999 94.4287 296.937 94.656 296.815C94.8833 296.69 95.058 296.526 95.1802 296.321C95.3052 296.116 95.3677 295.893 95.3677 295.652V294.881C95.3194 294.92 95.237 294.957 95.1205 294.991C95.0069 295.026 94.879 295.055 94.737 295.081C94.5949 295.107 94.4543 295.129 94.3151 295.149C94.1759 295.169 94.0552 295.186 93.9529 295.2C93.7228 295.232 93.5168 295.283 93.335 295.354C93.1532 295.425 93.0097 295.524 92.9046 295.652C92.7995 295.777 92.7469 295.939 92.7469 296.138C92.7469 296.422 92.8506 296.636 93.058 296.781C93.2654 296.926 93.5296 296.999 93.8506 296.999ZM95.1802 290.67L94.3151 289.58L93.45 290.67H92.0992V290.611L93.7142 288.77H94.9202L96.531 290.611V290.67H95.1802ZM94.2554 300.357C94.0083 300.357 93.7966 300.274 93.6205 300.109C93.4472 299.945 93.3606 299.747 93.3606 299.517C93.3606 299.287 93.4472 299.089 93.6205 298.925C93.7966 298.76 94.0069 298.678 94.2512 298.678C94.4983 298.678 94.7086 298.76 94.8819 298.925C95.058 299.089 95.1461 299.287 95.1461 299.517C95.1461 299.747 95.058 299.945 94.8819 300.109C94.7086 300.274 94.4998 300.357 94.2554 300.357ZM99.7598 294.165V298H98.2171V291.455H99.6916V292.567H99.7683C99.9189 292.2 100.159 291.909 100.488 291.693C100.821 291.477 101.231 291.369 101.72 291.369C102.172 291.369 102.565 291.466 102.9 291.659C103.238 291.852 103.5 292.132 103.684 292.499C103.872 292.865 103.964 293.31 103.961 293.832V298H102.419V294.071C102.419 293.634 102.305 293.291 102.078 293.044C101.854 292.797 101.542 292.673 101.145 292.673C100.875 292.673 100.635 292.733 100.425 292.852C100.217 292.969 100.054 293.138 99.9345 293.359C99.818 293.581 99.7598 293.849 99.7598 294.165ZM108.026 298V291.455H109.501V292.567H109.577C109.714 292.192 109.94 291.899 110.255 291.689C110.57 291.476 110.947 291.369 111.384 291.369C111.827 291.369 112.201 291.477 112.505 291.693C112.812 291.906 113.028 292.197 113.153 292.567H113.221C113.366 292.203 113.61 291.913 113.954 291.697C114.3 291.479 114.711 291.369 115.185 291.369C115.788 291.369 116.279 291.56 116.66 291.94C117.04 292.321 117.231 292.876 117.231 293.607V298H115.684V293.845C115.684 293.439 115.576 293.142 115.36 292.955C115.144 292.764 114.88 292.669 114.567 292.669C114.195 292.669 113.904 292.786 113.694 293.018C113.486 293.249 113.383 293.548 113.383 293.918V298H111.87V293.781C111.87 293.443 111.768 293.173 111.563 292.972C111.361 292.77 111.097 292.669 110.771 292.669C110.549 292.669 110.347 292.726 110.165 292.839C109.984 292.95 109.839 293.108 109.731 293.312C109.623 293.514 109.569 293.75 109.569 294.02V298H108.026ZM120.439 298.132C120.024 298.132 119.651 298.058 119.319 297.911C118.989 297.76 118.728 297.538 118.534 297.246C118.344 296.953 118.249 296.592 118.249 296.163C118.249 295.794 118.317 295.489 118.453 295.247C118.59 295.006 118.776 294.812 119.012 294.668C119.248 294.523 119.513 294.413 119.809 294.339C120.107 294.263 120.415 294.207 120.733 294.173C121.117 294.134 121.428 294.098 121.667 294.067C121.905 294.033 122.078 293.982 122.186 293.913C122.297 293.842 122.353 293.733 122.353 293.585V293.56C122.353 293.239 122.257 292.99 122.067 292.814C121.877 292.638 121.603 292.55 121.245 292.55C120.867 292.55 120.567 292.632 120.346 292.797C120.127 292.962 119.979 293.156 119.902 293.381L118.462 293.176C118.576 292.778 118.763 292.446 119.024 292.179C119.286 291.909 119.605 291.707 119.983 291.574C120.361 291.438 120.779 291.369 121.236 291.369C121.551 291.369 121.865 291.406 122.178 291.48C122.49 291.554 122.776 291.676 123.034 291.847C123.293 292.014 123.5 292.243 123.657 292.533C123.816 292.822 123.895 293.185 123.895 293.619V298H122.412V297.101H122.361C122.267 297.283 122.135 297.453 121.965 297.612C121.797 297.768 121.586 297.895 121.33 297.991C121.077 298.085 120.78 298.132 120.439 298.132ZM120.84 296.999C121.149 296.999 121.418 296.937 121.645 296.815C121.873 296.69 122.047 296.526 122.169 296.321C122.294 296.116 122.357 295.893 122.357 295.652V294.881C122.309 294.92 122.226 294.957 122.11 294.991C121.996 295.026 121.868 295.055 121.726 295.081C121.584 295.107 121.444 295.129 121.304 295.149C121.165 295.169 121.044 295.186 120.942 295.2C120.712 295.232 120.506 295.283 120.324 295.354C120.142 295.425 119.999 295.524 119.894 295.652C119.789 295.777 119.736 295.939 119.736 296.138C119.736 296.422 119.84 296.636 120.047 296.781C120.255 296.926 120.519 296.999 120.84 296.999ZM120.051 290.658L119.118 290.636C119.118 290.131 119.249 289.734 119.51 289.447C119.772 289.161 120.094 289.017 120.478 289.017C120.662 289.017 120.823 289.048 120.959 289.111C121.096 289.17 121.221 289.24 121.334 289.32C121.451 289.399 121.564 289.47 121.675 289.533C121.786 289.592 121.908 289.622 122.042 289.622C122.203 289.622 122.331 289.561 122.425 289.439C122.522 289.317 122.571 289.161 122.574 288.97L123.49 289.009C123.488 289.517 123.355 289.912 123.094 290.193C122.833 290.472 122.512 290.612 122.131 290.615C121.926 290.618 121.755 290.588 121.615 290.526C121.476 290.463 121.354 290.392 121.249 290.312C121.147 290.233 121.043 290.163 120.938 290.104C120.833 290.041 120.709 290.01 120.567 290.01C120.417 290.01 120.293 290.07 120.196 290.189C120.1 290.308 120.051 290.464 120.051 290.658Z" fill="#D900DD"/>
<path d="M343 140C345.761 140 348 142.239 348 145V266C345.239 266 343 268.239 343 271C343 273.761 345.239 276 348 276V310C348 312.761 345.761 315 343 315H203C200.239 315 198 312.761 198 310V276C200.761 276 203 273.761 203 271C203 268.239 200.761 266 198 266V145C198 142.239 200.239 140 203 140H343Z" fill="url(#paint3_linear_161_47)"/>
<line x1="204" y1="271" x2="342" y2="271" stroke="#9500FF" stroke-width="2" stroke-dasharray="5 5"/>
<path d="M247.632 160.727H249.528L251.531 165.614H251.616L253.619 160.727H255.516V168H254.024V163.266H253.964L252.082 167.964H251.066L249.184 163.249H249.124V168H247.632V160.727ZM261.369 162.226H262.271C262.271 162.827 262.128 163.296 261.842 163.632C261.555 163.966 261.095 164.133 260.46 164.133V163.529C260.711 163.529 260.902 163.477 261.032 163.373C261.162 163.266 261.251 163.116 261.298 162.922C261.346 162.728 261.369 162.496 261.369 162.226ZM259.019 168.107C258.467 168.107 257.99 167.989 257.587 167.755C257.187 167.518 256.878 167.189 256.661 166.768C256.443 166.344 256.334 165.853 256.334 165.294C256.334 164.731 256.443 164.238 256.661 163.817C256.878 163.393 257.187 163.064 257.587 162.83C257.99 162.593 258.467 162.474 259.019 162.474C259.57 162.474 260.046 162.593 260.446 162.83C260.849 163.064 261.159 163.393 261.377 163.817C261.594 164.238 261.703 164.731 261.703 165.294C261.703 165.853 261.594 166.344 261.377 166.768C261.159 167.189 260.849 167.518 260.446 167.755C260.046 167.989 259.57 168.107 259.019 168.107ZM259.026 166.935C259.277 166.935 259.486 166.864 259.654 166.722C259.822 166.577 259.949 166.381 260.034 166.132C260.122 165.884 260.166 165.601 260.166 165.283C260.166 164.966 260.122 164.683 260.034 164.435C259.949 164.186 259.822 163.99 259.654 163.845C259.486 163.701 259.277 163.629 259.026 163.629C258.772 163.629 258.559 163.701 258.386 163.845C258.216 163.99 258.087 164.186 257.999 164.435C257.914 164.683 257.872 164.966 257.872 165.283C257.872 165.601 257.914 165.884 257.999 166.132C258.087 166.381 258.216 166.577 258.386 166.722C258.559 166.864 258.772 166.935 259.026 166.935ZM258.493 161.842L257.41 160.227H258.806L259.562 161.842H258.493ZM262.672 168V162.545H264.185V168H262.672ZM263.432 161.842C263.207 161.842 263.015 161.768 262.854 161.619C262.695 161.467 262.616 161.286 262.616 161.075C262.616 160.867 262.695 160.688 262.854 160.539C263.015 160.388 263.207 160.312 263.432 160.312C263.657 160.312 263.849 160.388 264.008 160.539C264.169 160.688 264.249 160.867 264.249 161.075C264.249 161.286 264.169 161.467 264.008 161.619C263.849 161.768 263.657 161.842 263.432 161.842ZM267.34 168V160.727H268.853V163.462H268.899C268.965 163.315 269.061 163.166 269.187 163.014C269.314 162.86 269.48 162.732 269.684 162.631C269.89 162.527 270.145 162.474 270.451 162.474C270.848 162.474 271.215 162.579 271.552 162.787C271.888 162.993 272.156 163.304 272.358 163.721C272.559 164.135 272.66 164.655 272.66 165.28C272.66 165.888 272.561 166.402 272.365 166.821C272.171 167.238 271.905 167.554 271.569 167.769C271.236 167.982 270.861 168.089 270.447 168.089C270.154 168.089 269.904 168.04 269.698 167.943C269.494 167.846 269.327 167.724 269.197 167.577C269.067 167.428 268.968 167.278 268.899 167.126H268.831V168H267.34ZM268.821 165.273C268.821 165.597 268.866 165.88 268.956 166.121C269.046 166.363 269.176 166.551 269.346 166.686C269.517 166.819 269.724 166.885 269.968 166.885C270.214 166.885 270.422 166.817 270.593 166.683C270.763 166.545 270.892 166.356 270.98 166.114C271.07 165.871 271.115 165.59 271.115 165.273C271.115 164.958 271.071 164.681 270.983 164.442C270.896 164.203 270.767 164.016 270.596 163.881C270.426 163.746 270.216 163.678 269.968 163.678C269.722 163.678 269.513 163.743 269.343 163.874C269.175 164.004 269.046 164.188 268.956 164.428C268.866 164.667 268.821 164.948 268.821 165.273ZM275.024 168.103C274.676 168.103 274.366 168.043 274.094 167.922C273.822 167.799 273.606 167.618 273.448 167.379C273.291 167.137 273.213 166.836 273.213 166.477C273.213 166.174 273.269 165.919 273.38 165.713C273.491 165.507 273.643 165.341 273.835 165.216C274.026 165.09 274.244 164.996 274.488 164.932C274.734 164.868 274.992 164.823 275.262 164.797C275.579 164.764 275.835 164.733 276.029 164.705C276.223 164.674 276.364 164.629 276.452 164.57C276.539 164.51 276.583 164.423 276.583 164.307V164.286C276.583 164.061 276.512 163.887 276.37 163.763C276.231 163.64 276.032 163.579 275.774 163.579C275.501 163.579 275.285 163.639 275.124 163.76C274.963 163.878 274.856 164.027 274.804 164.207L273.405 164.094C273.476 163.762 273.616 163.476 273.824 163.234C274.032 162.991 274.301 162.804 274.63 162.673C274.962 162.541 275.345 162.474 275.781 162.474C276.084 162.474 276.374 162.51 276.651 162.581C276.93 162.652 277.177 162.762 277.393 162.911C277.611 163.06 277.782 163.252 277.908 163.487C278.033 163.719 278.096 163.997 278.096 164.321V168H276.661V167.244H276.619C276.531 167.414 276.414 167.564 276.267 167.695C276.12 167.822 275.944 167.923 275.738 167.996C275.532 168.067 275.294 168.103 275.024 168.103ZM275.458 167.059C275.68 167.059 275.877 167.015 276.047 166.928C276.218 166.838 276.351 166.717 276.448 166.565C276.545 166.414 276.594 166.242 276.594 166.05V165.472C276.547 165.502 276.481 165.531 276.399 165.557C276.318 165.58 276.227 165.603 276.125 165.624C276.023 165.643 275.922 165.661 275.82 165.678C275.718 165.692 275.626 165.705 275.543 165.717C275.365 165.743 275.21 165.784 275.078 165.841C274.945 165.898 274.842 165.975 274.769 166.072C274.695 166.166 274.659 166.285 274.659 166.427C274.659 166.633 274.733 166.79 274.882 166.899C275.034 167.006 275.226 167.059 275.458 167.059ZM275.777 170.042C275.552 170.042 275.359 169.967 275.198 169.818C275.037 169.669 274.957 169.489 274.957 169.278C274.957 169.068 275.037 168.888 275.198 168.739C275.359 168.589 275.552 168.515 275.777 168.515C276.002 168.515 276.194 168.589 276.352 168.739C276.513 168.888 276.594 169.068 276.594 169.278C276.594 169.489 276.513 169.669 276.352 169.818C276.194 169.967 276.002 170.042 275.777 170.042ZM280.582 164.847V168H279.07V162.545H280.511V163.508H280.575C280.696 163.191 280.899 162.94 281.183 162.755C281.467 162.568 281.811 162.474 282.216 162.474C282.595 162.474 282.925 162.557 283.207 162.723C283.489 162.889 283.707 163.125 283.864 163.433C284.02 163.739 284.098 164.103 284.098 164.527V168H282.585V164.797C282.588 164.463 282.502 164.203 282.33 164.016C282.157 163.826 281.919 163.732 281.616 163.732C281.412 163.732 281.232 163.775 281.076 163.863C280.922 163.951 280.801 164.078 280.714 164.246C280.629 164.412 280.585 164.612 280.582 164.847ZM287.233 168V160.727H288.746V163.462H288.792C288.859 163.315 288.954 163.166 289.08 163.014C289.208 162.86 289.373 162.732 289.577 162.631C289.783 162.527 290.039 162.474 290.344 162.474C290.742 162.474 291.109 162.579 291.445 162.787C291.781 162.993 292.05 163.304 292.251 163.721C292.452 164.135 292.553 164.655 292.553 165.28C292.553 165.888 292.455 166.402 292.258 166.821C292.064 167.238 291.799 167.554 291.463 167.769C291.129 167.982 290.755 168.089 290.341 168.089C290.047 168.089 289.797 168.04 289.591 167.943C289.388 167.846 289.221 167.724 289.091 167.577C288.96 167.428 288.861 167.278 288.792 167.126H288.725V168H287.233ZM288.714 165.273C288.714 165.597 288.759 165.88 288.849 166.121C288.939 166.363 289.069 166.551 289.24 166.686C289.41 166.819 289.617 166.885 289.861 166.885C290.107 166.885 290.316 166.817 290.486 166.683C290.657 166.545 290.786 166.356 290.873 166.114C290.963 165.871 291.008 165.59 291.008 165.273C291.008 164.958 290.964 164.681 290.877 164.442C290.789 164.203 290.66 164.016 290.49 163.881C290.319 163.746 290.11 163.678 289.861 163.678C289.615 163.678 289.407 163.743 289.236 163.874C289.068 164.004 288.939 164.188 288.849 164.428C288.759 164.667 288.714 164.948 288.714 165.273ZM295.848 168.107C295.287 168.107 294.804 167.993 294.399 167.766C293.997 167.536 293.687 167.212 293.469 166.793C293.251 166.371 293.142 165.873 293.142 165.298C293.142 164.737 293.251 164.244 293.469 163.82C293.687 163.397 293.993 163.066 294.389 162.83C294.786 162.593 295.253 162.474 295.788 162.474C296.148 162.474 296.483 162.532 296.793 162.648C297.105 162.762 297.377 162.934 297.609 163.163C297.844 163.393 298.026 163.682 298.156 164.03C298.287 164.375 298.352 164.78 298.352 165.244V165.66H293.746V164.722H296.928C296.928 164.504 296.88 164.312 296.786 164.143C296.691 163.975 296.559 163.844 296.391 163.749C296.226 163.652 296.033 163.604 295.813 163.604C295.583 163.604 295.379 163.657 295.202 163.763C295.027 163.868 294.889 164.009 294.79 164.186C294.69 164.361 294.64 164.557 294.637 164.772V165.663C294.637 165.933 294.687 166.166 294.786 166.363C294.888 166.559 295.031 166.711 295.216 166.817C295.401 166.924 295.62 166.977 295.873 166.977C296.041 166.977 296.195 166.954 296.335 166.906C296.474 166.859 296.594 166.788 296.693 166.693C296.793 166.598 296.868 166.482 296.921 166.345L298.32 166.438C298.249 166.774 298.103 167.067 297.883 167.318C297.665 167.567 297.383 167.761 297.038 167.901C296.694 168.038 296.298 168.107 295.848 168.107ZM295.23 161.842L294.147 160.227H295.543L296.299 161.842H295.23Z" fill="white" fill-opacity="0.8"/>
<path d="M243.875 237H219.922V231.961L228.523 223.266C230.258 221.484 231.648 220 232.695 218.812C233.758 217.609 234.523 216.516 234.992 215.531C235.477 214.547 235.719 213.492 235.719 212.367C235.719 211.008 235.336 209.992 234.57 209.32C233.82 208.633 232.812 208.289 231.547 208.289C230.219 208.289 228.93 208.594 227.68 209.203C226.43 209.812 225.125 210.68 223.766 211.805L219.828 207.141C220.812 206.297 221.852 205.5 222.945 204.75C224.055 204 225.336 203.398 226.789 202.945C228.258 202.477 230.016 202.242 232.062 202.242C234.312 202.242 236.242 202.648 237.852 203.461C239.477 204.273 240.727 205.383 241.602 206.789C242.477 208.18 242.914 209.758 242.914 211.523C242.914 213.414 242.539 215.141 241.789 216.703C241.039 218.266 239.945 219.812 238.508 221.344C237.086 222.875 235.367 224.57 233.352 226.43L228.945 230.578V230.906H243.875V237ZM247.251 233.648C247.251 232.18 247.649 231.148 248.446 230.555C249.259 229.961 250.235 229.664 251.376 229.664C252.485 229.664 253.438 229.961 254.235 230.555C255.048 231.148 255.454 232.18 255.454 233.648C255.454 235.055 255.048 236.07 254.235 236.695C253.438 237.32 252.485 237.633 251.376 237.633C250.235 237.633 249.259 237.32 248.446 236.695C247.649 236.07 247.251 235.055 247.251 233.648ZM271.627 215.109C273.721 215.109 275.58 215.508 277.205 216.305C278.846 217.102 280.135 218.273 281.072 219.82C282.01 221.367 282.478 223.273 282.478 225.539C282.478 228.008 281.963 230.141 280.932 231.938C279.916 233.719 278.393 235.086 276.361 236.039C274.346 236.992 271.83 237.469 268.814 237.469C267.018 237.469 265.322 237.312 263.728 237C262.15 236.703 260.768 236.242 259.58 235.617V229.359C260.768 229.984 262.189 230.516 263.846 230.953C265.518 231.375 267.088 231.586 268.557 231.586C269.994 231.586 271.205 231.398 272.189 231.023C273.174 230.633 273.916 230.039 274.416 229.242C274.932 228.43 275.189 227.398 275.189 226.148C275.189 224.477 274.627 223.195 273.502 222.305C272.377 221.414 270.65 220.969 268.322 220.969C267.432 220.969 266.502 221.055 265.533 221.227C264.58 221.398 263.783 221.57 263.143 221.742L260.26 220.195L261.549 202.734H280.135V208.875H267.9L267.268 215.602C267.799 215.492 268.377 215.383 269.002 215.273C269.627 215.164 270.502 215.109 271.627 215.109ZM293.308 202.242C295.995 202.242 298.034 203.18 299.425 205.055C300.815 206.93 301.511 209.562 301.511 212.953C301.511 216.344 300.854 218.992 299.542 220.898C298.229 222.805 296.151 223.758 293.308 223.758C290.667 223.758 288.659 222.805 287.284 220.898C285.909 218.992 285.222 216.344 285.222 212.953C285.222 209.562 285.862 206.93 287.143 205.055C288.44 203.18 290.495 202.242 293.308 202.242ZM293.354 207.141C292.589 207.141 292.026 207.625 291.667 208.594C291.308 209.562 291.128 211.031 291.128 213C291.128 214.969 291.308 216.445 291.667 217.43C292.026 218.414 292.589 218.906 293.354 218.906C294.12 218.906 294.683 218.422 295.042 217.453C295.417 216.469 295.604 214.984 295.604 213C295.604 211.031 295.417 209.562 295.042 208.594C294.683 207.625 294.12 207.141 293.354 207.141ZM317.636 202.734L298.628 237H293.003L312.011 202.734H317.636ZM317.308 215.93C319.995 215.93 322.034 216.867 323.425 218.742C324.815 220.617 325.511 223.25 325.511 226.641C325.511 230.016 324.854 232.656 323.542 234.562C322.229 236.469 320.151 237.422 317.308 237.422C314.667 237.422 312.659 236.469 311.284 234.562C309.909 232.656 309.222 230.016 309.222 226.641C309.222 223.25 309.862 220.617 311.143 218.742C312.44 216.867 314.495 215.93 317.308 215.93ZM317.354 220.828C316.589 220.828 316.026 221.312 315.667 222.281C315.308 223.25 315.128 224.719 315.128 226.688C315.128 228.656 315.308 230.133 315.667 231.117C316.026 232.102 316.589 232.594 317.354 232.594C318.12 232.594 318.683 232.109 319.042 231.141C319.417 230.156 319.604 228.672 319.604 226.688C319.604 224.719 319.417 223.25 319.042 222.281C318.683 221.312 318.12 220.828 317.354 220.828Z" fill="white" fill-opacity="0.2"/>
<path d="M216.5 176.5H231.5C231.96 176.5 232.333 176.873 232.333 177.333V190.667C232.333 191.127 231.96 191.5 231.5 191.5H216.5C216.04 191.5 215.667 191.127 215.667 190.667V177.333C215.667 176.873 216.04 176.5 216.5 176.5ZM219.833 184.833V188.167H221.5V184.833H219.833ZM223.167 179.833V188.167H224.833V179.833H223.167ZM226.5 182.333V188.167H228.167V182.333H226.5Z" fill="black" fill-opacity="0.1"/>
<g clip-path="url(#clip0_161_47)">
<path d="M287.833 242C284.612 242 282 244.612 282 247.833C282 251.055 284.612 253.667 287.833 253.667H288.726C288.687 253.394 288.667 253.116 288.667 252.833C288.667 252.55 288.687 252.272 288.726 252H287.833C285.532 252 283.667 250.134 283.667 247.833C283.667 245.532 285.532 243.667 287.833 243.667H294.5C296.801 243.667 298.667 245.532 298.667 247.833C298.667 248.119 298.638 248.398 298.583 248.667C299.071 249.146 299.475 249.709 299.772 250.333C300.132 249.576 300.333 248.728 300.333 247.833C300.333 244.612 297.722 242 294.5 242H287.833ZM290.333 252.833C290.333 250.532 292.199 248.667 294.5 248.667C296.801 248.667 298.667 250.532 298.667 252.833C298.667 253.683 298.413 254.472 297.976 255.131L300.089 257.244L298.911 258.423L296.798 256.31C296.139 256.746 295.349 257 294.5 257C292.199 257 290.333 255.134 290.333 252.833Z" fill="black" fill-opacity="0.1"/>
</g>
<path d="M224 243.667C228.6 243.667 232.333 247.4 232.333 252C232.333 256.6 228.6 260.333 224 260.333C219.4 260.333 215.667 256.6 215.667 252C215.667 247.4 219.4 243.667 224 243.667ZM224 247.833C221.7 247.833 219.833 249.7 219.833 252C219.833 254.3 221.7 256.167 224 256.167C225.516 256.167 226.844 255.355 227.573 254.144L226.144 253.287C225.707 254.014 224.911 254.5 224 254.5C222.619 254.5 221.5 253.381 221.5 252C221.5 250.619 222.619 249.5 224 249.5C224.911 249.5 225.708 249.986 226.145 250.714L227.573 249.856C226.844 248.645 225.516 247.833 224 247.833Z" fill="black" fill-opacity="0.1"/>
<path d="M263.736 216.75L264.738 217.351C264.935 217.469 264.999 217.725 264.881 217.923C264.846 217.981 264.796 218.03 264.738 218.066L257 222.708L249.262 218.066C249.065 217.947 249.001 217.691 249.119 217.494C249.154 217.435 249.203 217.386 249.262 217.351L250.264 216.75L257 220.792L263.736 216.75ZM263.736 220.667L264.738 221.268C264.935 221.386 264.999 221.642 264.881 221.839C264.846 221.898 264.796 221.947 264.738 221.982L257.429 226.368C257.165 226.526 256.835 226.526 256.571 226.368L249.262 221.982C249.065 221.864 249.001 221.608 249.119 221.411C249.154 221.352 249.203 221.303 249.262 221.268L250.264 220.667L257 224.708L263.736 220.667ZM257.429 209.091L264.738 213.476C264.935 213.594 264.999 213.85 264.881 214.048C264.846 214.106 264.796 214.155 264.738 214.191L257 218.833L249.262 214.191C249.065 214.072 249.001 213.816 249.119 213.619C249.154 213.56 249.203 213.511 249.262 213.476L256.571 209.091C256.835 208.932 257.165 208.932 257.429 209.091Z" fill="black" fill-opacity="0.1"/>
<path d="M284.167 210.5V223.833H297.5V225.5H282.5V210.5H284.167ZM296.616 212.949L298.384 214.717L293.333 219.768L290.833 217.267L287.551 220.551L285.783 218.783L290.833 213.732L293.333 216.232L296.616 212.949Z" fill="black" fill-opacity="0.1"/>
<path d="M251.167 244.5V257.833H264.5V259.5H249.5V244.5H251.167ZM263.616 246.949L265.384 248.717L260.333 253.768L257.833 251.267L254.551 254.551L252.783 252.783L257.833 247.732L260.333 250.232L263.616 246.949Z" fill="black" fill-opacity="0.1"/>
<path d="M249.5 184H252.833V191.5H249.5V184ZM261.167 180.667H264.5V191.5H261.167V180.667ZM255.333 175.667H258.667V191.5H255.333V175.667Z" fill="black" fill-opacity="0.1"/>
<path d="M289.167 175.708V184.833H298.292C297.874 189.044 294.321 192.333 290 192.333C285.398 192.333 281.667 188.602 281.667 184C281.667 179.679 284.956 176.126 289.167 175.708ZM290.833 174.452C295.461 174.851 299.149 178.539 299.548 183.167H290.833V174.452Z" fill="black" fill-opacity="0.1"/>
<path d="M230.41 212.594H231C231.46 212.594 231.834 212.967 231.834 213.428V219.261C231.834 219.721 231.46 220.094 231 220.094H229.334L225.86 215.231C225.445 214.651 224.708 214.399 224.025 214.604L221.954 215.225C221.366 215.401 220.73 215.241 220.296 214.807L220.052 214.563C219.68 214.191 219.742 213.572 220.179 213.28L224.68 210.28C225.229 209.914 225.943 209.906 226.5 210.261L229.962 212.464C230.096 212.549 230.251 212.594 230.41 212.594ZM218.523 219.507L217.176 220.685C216.783 221.028 216.8 221.645 217.21 221.967L221.494 225.333C221.894 225.647 222.48 225.533 222.732 225.091L223.319 224.065C223.677 223.438 223.591 222.651 223.105 222.117L220.853 219.64C220.242 218.968 219.206 218.909 218.523 219.507ZM220.205 211.761H216.833C216.373 211.761 216 212.134 216 212.594V218.858C216 219.198 216.104 219.525 216.292 219.8C216.312 219.781 216.332 219.762 216.353 219.744L217.699 218.566C218.895 217.519 220.709 217.623 221.778 218.799L224.03 221.276C224.88 222.211 225.031 223.588 224.404 224.685L223.859 225.639C224.328 225.817 224.863 225.777 225.308 225.51L228.982 223.305C229.399 223.055 229.514 222.502 229.231 222.107L224.842 215.958C224.739 215.813 224.554 215.75 224.384 215.801L222.313 216.422C221.285 216.731 220.171 216.45 219.412 215.691L219.168 215.447C218.238 214.517 218.392 212.97 219.486 212.24L220.205 211.761Z" fill="black" fill-opacity="0.1"/>
<path d="M239 293.5C239 286.596 244.596 281 251.5 281H294.5C301.404 281 307 286.596 307 293.5C307 300.404 301.404 306 294.5 306H251.5C244.596 306 239 300.404 239 293.5Z" fill="white"/>
<path d="M251.5 279.5H294.5C302.232 279.5 308.5 285.768 308.5 293.5C308.5 301.232 302.232 307.5 294.5 307.5H251.5C243.768 307.5 237.5 301.232 237.5 293.5C237.5 285.768 243.768 279.5 251.5 279.5Z" stroke="white"/>
<path d="M256.033 289.273V298H254.626L250.514 292.055H250.442V298H248.861V289.273H250.276L254.384 295.222H254.46V289.273H256.033ZM258.99 294.165V298H257.447V289.273H258.956V292.567H259.032C259.186 292.197 259.423 291.906 259.744 291.693C260.068 291.477 260.48 291.369 260.98 291.369C261.434 291.369 261.831 291.464 262.169 291.655C262.507 291.845 262.768 292.124 262.953 292.49C263.14 292.857 263.234 293.304 263.234 293.832V298H261.691V294.071C261.691 293.631 261.578 293.288 261.351 293.044C261.126 292.797 260.811 292.673 260.405 292.673C260.132 292.673 259.887 292.733 259.672 292.852C259.459 292.969 259.291 293.138 259.169 293.359C259.049 293.581 258.99 293.849 258.99 294.165ZM266.45 298.132C266.035 298.132 265.662 298.058 265.329 297.911C265 297.76 264.738 297.538 264.545 297.246C264.355 296.953 264.26 296.592 264.26 296.163C264.26 295.794 264.328 295.489 264.464 295.247C264.601 295.006 264.787 294.812 265.022 294.668C265.258 294.523 265.524 294.413 265.819 294.339C266.118 294.263 266.426 294.207 266.744 294.173C267.128 294.134 267.439 294.098 267.677 294.067C267.916 294.033 268.089 293.982 268.197 293.913C268.308 293.842 268.363 293.733 268.363 293.585V293.56C268.363 293.239 268.268 292.99 268.078 292.814C267.888 292.638 267.613 292.55 267.255 292.55C266.878 292.55 266.578 292.632 266.356 292.797C266.138 292.962 265.99 293.156 265.913 293.381L264.473 293.176C264.586 292.778 264.774 292.446 265.035 292.179C265.297 291.909 265.616 291.707 265.994 291.574C266.372 291.438 266.79 291.369 267.247 291.369C267.562 291.369 267.876 291.406 268.189 291.48C268.501 291.554 268.787 291.676 269.045 291.847C269.304 292.014 269.511 292.243 269.667 292.533C269.826 292.822 269.906 293.185 269.906 293.619V298H268.423V297.101H268.372C268.278 297.283 268.146 297.453 267.976 297.612C267.808 297.768 267.596 297.895 267.341 297.991C267.088 298.085 266.791 298.132 266.45 298.132ZM266.851 296.999C267.16 296.999 267.429 296.937 267.656 296.815C267.883 296.69 268.058 296.526 268.18 296.321C268.305 296.116 268.368 295.893 268.368 295.652V294.881C268.319 294.92 268.237 294.957 268.12 294.991C268.007 295.026 267.879 295.055 267.737 295.081C267.595 295.107 267.454 295.129 267.315 295.149C267.176 295.169 267.055 295.186 266.953 295.2C266.723 295.232 266.517 295.283 266.335 295.354C266.153 295.425 266.01 295.524 265.905 295.652C265.799 295.777 265.747 295.939 265.747 296.138C265.747 296.422 265.851 296.636 266.058 296.781C266.265 296.926 266.53 296.999 266.851 296.999ZM268.18 290.67L267.315 289.58L266.45 290.67H265.099V290.611L266.714 288.77H267.92L269.531 290.611V290.67H268.18ZM267.255 300.357C267.008 300.357 266.797 300.274 266.62 300.109C266.447 299.945 266.361 299.747 266.361 299.517C266.361 299.287 266.447 299.089 266.62 298.925C266.797 298.76 267.007 298.678 267.251 298.678C267.498 298.678 267.709 298.76 267.882 298.925C268.058 299.089 268.146 299.287 268.146 299.517C268.146 299.747 268.058 299.945 267.882 300.109C267.709 300.274 267.5 300.357 267.255 300.357ZM272.76 294.165V298H271.217V291.455H272.692V292.567H272.768C272.919 292.2 273.159 291.909 273.488 291.693C273.821 291.477 274.231 291.369 274.72 291.369C275.172 291.369 275.565 291.466 275.9 291.659C276.238 291.852 276.5 292.132 276.684 292.499C276.872 292.865 276.964 293.31 276.961 293.832V298H275.419V294.071C275.419 293.634 275.305 293.291 275.078 293.044C274.854 292.797 274.542 292.673 274.145 292.673C273.875 292.673 273.635 292.733 273.425 292.852C273.217 292.969 273.054 293.138 272.934 293.359C272.818 293.581 272.76 293.849 272.76 294.165ZM281.026 298V291.455H282.501V292.567H282.577C282.714 292.192 282.94 291.899 283.255 291.689C283.57 291.476 283.947 291.369 284.384 291.369C284.827 291.369 285.201 291.477 285.505 291.693C285.812 291.906 286.028 292.197 286.153 292.567H286.221C286.366 292.203 286.61 291.913 286.954 291.697C287.3 291.479 287.711 291.369 288.185 291.369C288.788 291.369 289.279 291.56 289.66 291.94C290.04 292.321 290.231 292.876 290.231 293.607V298H288.684V293.845C288.684 293.439 288.576 293.142 288.36 292.955C288.144 292.764 287.88 292.669 287.567 292.669C287.195 292.669 286.904 292.786 286.694 293.018C286.486 293.249 286.383 293.548 286.383 293.918V298H284.87V293.781C284.87 293.443 284.768 293.173 284.563 292.972C284.361 292.77 284.097 292.669 283.771 292.669C283.549 292.669 283.347 292.726 283.165 292.839C282.984 292.95 282.839 293.108 282.731 293.312C282.623 293.514 282.569 293.75 282.569 294.02V298H281.026ZM293.439 298.132C293.024 298.132 292.651 298.058 292.319 297.911C291.989 297.76 291.728 297.538 291.534 297.246C291.344 296.953 291.249 296.592 291.249 296.163C291.249 295.794 291.317 295.489 291.453 295.247C291.59 295.006 291.776 294.812 292.012 294.668C292.248 294.523 292.513 294.413 292.809 294.339C293.107 294.263 293.415 294.207 293.733 294.173C294.117 294.134 294.428 294.098 294.667 294.067C294.905 294.033 295.078 293.982 295.186 293.913C295.297 293.842 295.353 293.733 295.353 293.585V293.56C295.353 293.239 295.257 292.99 295.067 292.814C294.877 292.638 294.603 292.55 294.245 292.55C293.867 292.55 293.567 292.632 293.346 292.797C293.127 292.962 292.979 293.156 292.902 293.381L291.462 293.176C291.576 292.778 291.763 292.446 292.024 292.179C292.286 291.909 292.605 291.707 292.983 291.574C293.361 291.438 293.779 291.369 294.236 291.369C294.551 291.369 294.865 291.406 295.178 291.48C295.49 291.554 295.776 291.676 296.034 291.847C296.293 292.014 296.5 292.243 296.657 292.533C296.816 292.822 296.895 293.185 296.895 293.619V298H295.412V297.101H295.361C295.267 297.283 295.135 297.453 294.965 297.612C294.797 297.768 294.586 297.895 294.33 297.991C294.077 298.085 293.78 298.132 293.439 298.132ZM293.84 296.999C294.149 296.999 294.418 296.937 294.645 296.815C294.873 296.69 295.047 296.526 295.169 296.321C295.294 296.116 295.357 295.893 295.357 295.652V294.881C295.309 294.92 295.226 294.957 295.11 294.991C294.996 295.026 294.868 295.055 294.726 295.081C294.584 295.107 294.444 295.129 294.304 295.149C294.165 295.169 294.044 295.186 293.942 295.2C293.712 295.232 293.506 295.283 293.324 295.354C293.142 295.425 292.999 295.524 292.894 295.652C292.789 295.777 292.736 295.939 292.736 296.138C292.736 296.422 292.84 296.636 293.047 296.781C293.255 296.926 293.519 296.999 293.84 296.999ZM293.051 290.658L292.118 290.636C292.118 290.131 292.249 289.734 292.51 289.447C292.772 289.161 293.094 289.017 293.478 289.017C293.662 289.017 293.823 289.048 293.959 289.111C294.096 289.17 294.221 289.24 294.334 289.32C294.451 289.399 294.564 289.47 294.675 289.533C294.786 289.592 294.908 289.622 295.042 289.622C295.203 289.622 295.331 289.561 295.425 289.439C295.522 289.317 295.571 289.161 295.574 288.97L296.49 289.009C296.488 289.517 296.355 289.912 296.094 290.193C295.833 290.472 295.512 290.612 295.131 290.615C294.926 290.618 294.755 290.588 294.615 290.526C294.476 290.463 294.354 290.392 294.249 290.312C294.147 290.233 294.043 290.163 293.938 290.104C293.833 290.041 293.709 290.01 293.567 290.01C293.417 290.01 293.293 290.07 293.196 290.189C293.1 290.308 293.051 290.464 293.051 290.658Z" fill="#5EDFFF"/>
<path d="M254.25 230H238.281V226.641L244.016 220.844C245.172 219.656 246.099 218.667 246.797 217.875C247.505 217.073 248.016 216.344 248.328 215.688C248.651 215.031 248.812 214.328 248.812 213.578C248.812 212.672 248.557 211.995 248.047 211.547C247.547 211.089 246.875 210.859 246.031 210.859C245.146 210.859 244.286 211.062 243.453 211.469C242.62 211.875 241.75 212.453 240.844 213.203L238.219 210.094C238.875 209.531 239.568 209 240.297 208.5C241.036 208 241.891 207.599 242.859 207.297C243.839 206.984 245.01 206.828 246.375 206.828C247.875 206.828 249.161 207.099 250.234 207.641C251.318 208.182 252.151 208.922 252.734 209.859C253.318 210.786 253.609 211.839 253.609 213.016C253.609 214.276 253.359 215.427 252.859 216.469C252.359 217.51 251.63 218.542 250.672 219.562C249.724 220.583 248.578 221.714 247.234 222.953L244.297 225.719V225.938H254.25V230ZM256.501 227.766C256.501 226.786 256.766 226.099 257.298 225.703C257.839 225.307 258.49 225.109 259.251 225.109C259.99 225.109 260.626 225.307 261.157 225.703C261.699 226.099 261.969 226.786 261.969 227.766C261.969 228.703 261.699 229.38 261.157 229.797C260.626 230.214 259.99 230.422 259.251 230.422C258.49 230.422 257.839 230.214 257.298 229.797C256.766 229.38 256.501 228.703 256.501 227.766ZM272.751 215.406C274.147 215.406 275.387 215.672 276.47 216.203C277.564 216.734 278.423 217.516 279.048 218.547C279.673 219.578 279.986 220.849 279.986 222.359C279.986 224.005 279.642 225.427 278.954 226.625C278.277 227.812 277.262 228.724 275.907 229.359C274.564 229.995 272.887 230.312 270.876 230.312C269.678 230.312 268.548 230.208 267.486 230C266.434 229.802 265.512 229.495 264.72 229.078V224.906C265.512 225.323 266.46 225.677 267.564 225.969C268.678 226.25 269.725 226.391 270.704 226.391C271.663 226.391 272.47 226.266 273.126 226.016C273.782 225.755 274.277 225.359 274.611 224.828C274.954 224.286 275.126 223.599 275.126 222.766C275.126 221.651 274.751 220.797 274.001 220.203C273.251 219.609 272.1 219.312 270.548 219.312C269.954 219.312 269.335 219.37 268.689 219.484C268.053 219.599 267.522 219.714 267.095 219.828L265.173 218.797L266.032 207.156H278.423V211.25H270.267L269.845 215.734C270.199 215.661 270.585 215.589 271.001 215.516C271.418 215.443 272.001 215.406 272.751 215.406ZM287.205 206.828C288.997 206.828 290.356 207.453 291.283 208.703C292.21 209.953 292.674 211.708 292.674 213.969C292.674 216.229 292.236 217.995 291.361 219.266C290.486 220.536 289.101 221.172 287.205 221.172C285.445 221.172 284.106 220.536 283.189 219.266C282.273 217.995 281.814 216.229 281.814 213.969C281.814 211.708 282.241 209.953 283.096 208.703C283.96 207.453 285.33 206.828 287.205 206.828ZM287.236 210.094C286.726 210.094 286.351 210.417 286.111 211.062C285.872 211.708 285.752 212.688 285.752 214C285.752 215.312 285.872 216.297 286.111 216.953C286.351 217.609 286.726 217.938 287.236 217.938C287.747 217.938 288.122 217.615 288.361 216.969C288.611 216.312 288.736 215.323 288.736 214C288.736 212.688 288.611 211.708 288.361 211.062C288.122 210.417 287.747 210.094 287.236 210.094ZM303.424 207.156L290.752 230H287.002L299.674 207.156H303.424ZM303.205 215.953C304.997 215.953 306.356 216.578 307.283 217.828C308.21 219.078 308.674 220.833 308.674 223.094C308.674 225.344 308.236 227.104 307.361 228.375C306.486 229.646 305.101 230.281 303.205 230.281C301.445 230.281 300.106 229.646 299.189 228.375C298.273 227.104 297.814 225.344 297.814 223.094C297.814 220.833 298.241 219.078 299.096 217.828C299.96 216.578 301.33 215.953 303.205 215.953ZM303.236 219.219C302.726 219.219 302.351 219.542 302.111 220.188C301.872 220.833 301.752 221.812 301.752 223.125C301.752 224.438 301.872 225.422 302.111 226.078C302.351 226.734 302.726 227.062 303.236 227.062C303.747 227.062 304.122 226.74 304.361 226.094C304.611 225.438 304.736 224.448 304.736 223.125C304.736 221.812 304.611 220.833 304.361 220.188C304.122 219.542 303.747 219.219 303.236 219.219Z" fill="white"/>
<path d="M268.026 63.8473L271.595 67.4162L270.416 68.5947L266.847 65.0258C265.564 66.0525 263.937 66.6666 262.167 66.6666C258.027 66.6666 254.667 63.3066 254.667 59.1666C254.667 55.0266 258.027 51.6666 262.167 51.6666C266.307 51.6666 269.667 55.0266 269.667 59.1666C269.667 60.9366 269.053 62.564 268.026 63.8473ZM266.354 63.229C267.373 62.1788 268 60.7463 268 59.1666C268 55.9437 265.39 53.3333 262.167 53.3333C258.944 53.3333 256.333 55.9437 256.333 59.1666C256.333 62.3895 258.944 65 262.167 65C263.746 65 265.179 64.3729 266.229 63.3539L266.354 63.229Z" fill="white"/>
<path d="M34.8335 60.5L34.8336 59.5001H26.9083V56.793L23.1667 60.0001L26.9083 63.2072V60.5001L34.8335 60.5Z" fill="white"/>
<path d="M230.5 14.9583L233.25 19.0833H227.75L230.5 14.9583ZM230.014 13.8402C229.745 13.5718 229.745 13.1365 230.014 12.868C230.282 12.5995 230.718 12.5995 230.986 12.868C231.255 13.1365 231.255 13.5718 230.986 13.8402C230.718 14.1087 230.282 14.1087 230.014 13.8402ZM227.421 10.2753L228.069 10.9234C226.727 12.2659 226.727 14.4424 228.069 15.7848L227.421 16.433C225.721 14.7326 225.721 11.9757 227.421 10.2753ZM233.579 10.2753C235.279 11.9757 235.279 14.7326 233.579 16.433L232.931 15.7848C234.273 14.4424 234.273 12.2659 232.931 10.9234L233.579 10.2753ZM228.717 11.5716L229.366 12.2198C228.739 12.8463 228.739 13.862 229.366 14.4885L228.717 15.1366C227.733 14.1522 227.733 12.5561 228.717 11.5716ZM232.283 11.5716C233.267 12.5561 233.267 14.1522 232.283 15.1366L231.634 14.4885C232.261 13.862 232.261 12.8463 231.634 12.2198L232.283 11.5716Z" fill="white"/>
<path d="M248 10.5C250.142 10.5 252.11 11.2484 253.655 12.498L248 19.5L242.345 12.4984C243.89 11.2485 245.858 10.5 248 10.5Z" fill="white"/>
<path d="M28.3281 15.084C28.3281 15.5918 28.291 16.0898 28.2168 16.5781C28.1465 17.0664 28.0215 17.5234 27.8418 17.9492C27.666 18.375 27.4219 18.752 27.1094 19.0801C26.8008 19.4043 26.4102 19.6582 25.9375 19.8418C25.4648 20.0254 24.8945 20.1172 24.2266 20.1172C24.0586 20.1172 23.8633 20.1074 23.6406 20.0879C23.4219 20.0723 23.2422 20.0488 23.1016 20.0176V18.8691C23.25 18.9121 23.416 18.9473 23.5996 18.9746C23.7871 18.998 23.9727 19.0098 24.1562 19.0098C24.8789 19.0098 25.4414 18.875 25.8438 18.6055C26.25 18.3359 26.5371 17.9648 26.7051 17.4922C26.877 17.0195 26.9746 16.4824 26.998 15.8809H26.9277C26.8145 16.0684 26.6719 16.2402 26.5 16.3965C26.3281 16.5488 26.1152 16.6719 25.8613 16.7656C25.6074 16.8555 25.2988 16.9004 24.9355 16.9004C24.4434 16.9004 24.0137 16.7969 23.6465 16.5898C23.2832 16.3828 23 16.082 22.7969 15.6875C22.5977 15.2891 22.498 14.8105 22.498 14.252C22.498 13.6465 22.6133 13.125 22.8438 12.6875C23.0742 12.25 23.4004 11.9141 23.8223 11.6797C24.2441 11.4414 24.7402 11.3223 25.3105 11.3223C25.7402 11.3223 26.1367 11.4004 26.5 11.5566C26.8672 11.709 27.1875 11.9434 27.4609 12.2598C27.7344 12.5723 27.9473 12.9648 28.0996 13.4375C28.252 13.9062 28.3281 14.4551 28.3281 15.084ZM25.3281 12.459C24.8945 12.459 24.541 12.6055 24.2676 12.8984C23.9941 13.1875 23.8574 13.6328 23.8574 14.2344C23.8574 14.7227 23.9746 15.1094 24.209 15.3945C24.4434 15.6797 24.8027 15.8223 25.2871 15.8223C25.623 15.8223 25.9121 15.7539 26.1543 15.6172C26.4004 15.4766 26.5898 15.2988 26.7227 15.084C26.8594 14.8691 26.9277 14.6504 26.9277 14.4277C26.9277 14.1973 26.8945 13.9668 26.8281 13.7363C26.7656 13.5059 26.668 13.2949 26.5352 13.1035C26.4023 12.9121 26.2344 12.7578 26.0312 12.6406C25.832 12.5195 25.5977 12.459 25.3281 12.459ZM29.4123 19.2734C29.4123 18.9531 29.4944 18.7285 29.6584 18.5996C29.8264 18.4668 30.0295 18.4004 30.2678 18.4004C30.5061 18.4004 30.7092 18.4668 30.8772 18.5996C31.0491 18.7285 31.135 18.9531 31.135 19.2734C31.135 19.5859 31.0491 19.8125 30.8772 19.9531C30.7092 20.0898 30.5061 20.1582 30.2678 20.1582C30.0295 20.1582 29.8264 20.0898 29.6584 19.9531C29.4944 19.8125 29.4123 19.5859 29.4123 19.2734ZM29.4123 14.2578C29.4123 13.9336 29.4944 13.7051 29.6584 13.5723C29.8264 13.4395 30.0295 13.373 30.2678 13.373C30.5061 13.373 30.7092 13.4395 30.8772 13.5723C31.0491 13.7051 31.135 13.9336 31.135 14.2578C31.135 14.5664 31.0491 14.791 30.8772 14.9316C30.7092 15.0684 30.5061 15.1367 30.2678 15.1367C30.0295 15.1367 29.8264 15.0684 29.6584 14.9316C29.4944 14.791 29.4123 14.5664 29.4123 14.2578ZM36.268 20H34.8852V14.4863C34.8852 14.3027 34.8872 14.1191 34.8911 13.9355C34.895 13.752 34.8989 13.5723 34.9028 13.3965C34.9106 13.2207 34.9204 13.0527 34.9321 12.8926C34.8501 12.9824 34.7485 13.0801 34.6274 13.1855C34.5102 13.291 34.3852 13.4004 34.2524 13.5137L33.268 14.2988L32.5766 13.4258L35.1196 11.4336H36.268V20ZM42.8952 20H41.5124V14.4863C41.5124 14.3027 41.5144 14.1191 41.5183 13.9355C41.5222 13.752 41.5261 13.5723 41.53 13.3965C41.5378 13.2207 41.5476 13.0527 41.5593 12.8926C41.4773 12.9824 41.3757 13.0801 41.2546 13.1855C41.1374 13.291 41.0124 13.4004 40.8796 13.5137L39.8952 14.2988L39.2038 13.4258L41.7468 11.4336H42.8952V20Z" fill="white"/>
<path d="M262.25 10.9166H274.25C274.664 10.9166 275 11.1778 275 11.5V18.5C275 18.8221 274.664 19.0833 274.25 19.0833H262.25C261.836 19.0833 261.5 18.8221 261.5 18.5V11.5C261.5 11.1778 261.836 10.9166 262.25 10.9166ZM275.75 13.25H277.25V16.75H275.75V13.25Z" fill="white"/>
<path d="M69 59.5C69 52.5964 74.5964 47 81.5 47H216.5C223.404 47 229 52.5964 229 59.5C229 66.4036 223.404 72 216.5 72H81.5C74.5964 72 69 66.4036 69 59.5Z" fill="white"/>
<path d="M81.5 45.5H216.5C224.232 45.5 230.5 51.768 230.5 59.5C230.5 67.232 224.232 73.5 216.5 73.5H81.5C73.768 73.5 67.5 67.232 67.5 59.5C67.5 51.768 73.768 45.5 81.5 45.5Z" stroke="white"/>
<path d="M92.331 58.2173H90.7372C90.6918 57.956 90.608 57.7244 90.4858 57.5227C90.3636 57.3182 90.2116 57.1449 90.0298 57.0028C89.848 56.8608 89.6406 56.7543 89.4077 56.6832C89.1776 56.6094 88.929 56.5724 88.6619 56.5724C88.1875 56.5724 87.767 56.6918 87.4006 56.9304C87.0341 57.1662 86.7472 57.5128 86.5398 57.9702C86.3324 58.4247 86.2287 58.9801 86.2287 59.6364C86.2287 60.304 86.3324 60.8665 86.5398 61.3239C86.75 61.7784 87.0369 62.1222 87.4006 62.3551C87.767 62.5852 88.1861 62.7003 88.6577 62.7003C88.919 62.7003 89.1634 62.6662 89.3906 62.598C89.6207 62.527 89.8267 62.4233 90.0085 62.2869C90.1932 62.1506 90.348 61.983 90.473 61.7841C90.6009 61.5852 90.6889 61.358 90.7372 61.1023L92.331 61.1108C92.2713 61.5256 92.142 61.9148 91.9432 62.2784C91.7472 62.642 91.4901 62.9631 91.1719 63.2415C90.8537 63.517 90.4815 63.733 90.0554 63.8892C89.6293 64.0426 89.1563 64.1193 88.6364 64.1193C87.8693 64.1193 87.1847 63.9418 86.5824 63.5866C85.9801 63.2315 85.5057 62.7188 85.1591 62.0483C84.8125 61.3778 84.6392 60.5739 84.6392 59.6364C84.6392 58.696 84.8139 57.892 85.1634 57.2244C85.5128 56.554 85.9886 56.0412 86.5909 55.6861C87.1932 55.331 87.875 55.1534 88.6364 55.1534C89.1222 55.1534 89.5739 55.2216 89.9915 55.358C90.4091 55.4943 90.7813 55.6946 91.108 55.9588C91.4347 56.2202 91.7031 56.5412 91.9134 56.9219C92.1264 57.2997 92.2656 57.7315 92.331 58.2173ZM95.0132 60.1648V64H93.4706V55.2727H94.9791V58.5668H95.0558C95.2092 58.1974 95.4464 57.9062 95.7675 57.6932C96.0913 57.4773 96.5033 57.3693 97.0033 57.3693C97.4578 57.3693 97.8541 57.4645 98.1922 57.6548C98.5302 57.8452 98.7916 58.1236 98.9763 58.4901C99.1638 58.8565 99.2575 59.304 99.2575 59.8324V64H97.7149V60.071C97.7149 59.6307 97.6013 59.2884 97.374 59.044C97.1496 58.7969 96.8342 58.6733 96.428 58.6733C96.1552 58.6733 95.9109 58.733 95.695 58.8523C95.4819 58.9687 95.3143 59.1378 95.1922 59.3594C95.0729 59.581 95.0132 59.8494 95.0132 60.1648ZM107.17 57.1179H108.162C108.162 57.5895 108.094 57.9858 107.958 58.3068C107.824 58.625 107.596 58.8651 107.272 59.027C106.948 59.1889 106.5 59.2699 105.929 59.2699V58.4943C106.31 58.4943 106.587 58.446 106.76 58.3494C106.934 58.25 107.045 58.098 107.093 57.8935C107.141 57.6889 107.167 57.4304 107.17 57.1179ZM104.787 61.2472V57.4545H106.334V64H104.834V62.8366H104.766C104.618 63.2031 104.375 63.5028 104.037 63.7358C103.702 63.9687 103.289 64.0852 102.797 64.0852C102.368 64.0852 101.989 63.9901 101.66 63.7997C101.333 63.6065 101.077 63.3267 100.893 62.9602C100.708 62.5909 100.616 62.1449 100.616 61.6222V57.4545H102.158V61.3835C102.161 61.7983 102.275 62.1278 102.499 62.3722C102.726 62.6165 103.025 62.7386 103.394 62.7386C103.621 62.7386 103.841 62.6832 104.054 62.5724C104.27 62.4616 104.446 62.2969 104.583 62.0781C104.722 61.8565 104.79 61.5795 104.787 61.2472ZM114.131 57.0369H115.162C115.162 57.7301 115.001 58.2756 114.677 58.6733C114.356 59.0682 113.822 59.2656 113.074 59.2656V58.5412C113.37 58.5412 113.593 58.4801 113.743 58.358C113.897 58.2358 113.999 58.0625 114.05 57.8381C114.104 57.6108 114.131 57.3437 114.131 57.0369ZM111.361 64.1278C110.722 64.1278 110.168 63.9872 109.699 63.706C109.231 63.4247 108.867 63.0312 108.608 62.5256C108.353 62.0199 108.225 61.429 108.225 60.7528C108.225 60.0767 108.353 59.4844 108.608 58.9759C108.867 58.4673 109.231 58.0724 109.699 57.7912C110.168 57.5099 110.722 57.3693 111.361 57.3693C112.001 57.3693 112.555 57.5099 113.023 57.7912C113.492 58.0724 113.854 58.4673 114.11 58.9759C114.368 59.4844 114.498 60.0767 114.498 60.7528C114.498 61.429 114.368 62.0199 114.11 62.5256C113.854 63.0312 113.492 63.4247 113.023 63.706C112.555 63.9872 112.001 64.1278 111.361 64.1278ZM111.37 62.892C111.716 62.892 112.006 62.7969 112.239 62.6065C112.472 62.4134 112.645 62.1548 112.759 61.831C112.876 61.5071 112.934 61.1463 112.934 60.7486C112.934 60.348 112.876 59.9858 112.759 59.6619C112.645 59.3352 112.472 59.0753 112.239 58.8821C112.006 58.6889 111.716 58.5923 111.37 58.5923C111.015 58.5923 110.719 58.6889 110.483 58.8821C110.251 59.0753 110.076 59.3352 109.959 59.6619C109.846 59.9858 109.789 60.348 109.789 60.7486C109.789 61.1463 109.846 61.5071 109.959 61.831C110.076 62.1548 110.251 62.4134 110.483 62.6065C110.719 62.7969 111.015 62.892 111.37 62.892ZM117.262 60.1648V64H115.719V57.4545H117.194V58.5668H117.27C117.421 58.2003 117.661 57.9091 117.991 57.6932C118.323 57.4773 118.734 57.3693 119.222 57.3693C119.674 57.3693 120.067 57.4659 120.403 57.6591C120.741 57.8523 121.002 58.1321 121.187 58.4986C121.374 58.8651 121.466 59.3097 121.464 59.8324V64H119.921V60.071C119.921 59.6335 119.807 59.2912 119.58 59.044C119.356 58.7969 119.045 58.6733 118.647 58.6733C118.377 58.6733 118.137 58.733 117.927 58.8523C117.719 58.9687 117.556 59.1378 117.437 59.3594C117.32 59.581 117.262 59.8494 117.262 60.1648ZM125.638 66.5909C125.084 66.5909 124.609 66.5156 124.211 66.3651C123.813 66.2173 123.494 66.0185 123.252 65.7685C123.011 65.5185 122.843 65.2415 122.749 64.9375L124.138 64.6009C124.201 64.7287 124.292 64.8551 124.411 64.9801C124.53 65.108 124.691 65.2131 124.893 65.2955C125.097 65.3807 125.354 65.4233 125.664 65.4233C126.101 65.4233 126.464 65.3168 126.751 65.1037C127.038 64.8935 127.181 64.5469 127.181 64.0639V62.8239H127.104C127.025 62.983 126.908 63.1463 126.755 63.3139C126.604 63.4815 126.404 63.6222 126.154 63.7358C125.907 63.8494 125.596 63.9062 125.221 63.9062C124.718 63.9062 124.262 63.7884 123.853 63.5526C123.447 63.3139 123.123 62.9588 122.881 62.4872C122.643 62.0128 122.523 61.419 122.523 60.706C122.523 59.9872 122.643 59.3807 122.881 58.8864C123.123 58.3892 123.448 58.0128 123.857 57.7571C124.266 57.4986 124.722 57.3693 125.225 57.3693C125.609 57.3693 125.924 57.4347 126.171 57.5653C126.421 57.6932 126.62 57.848 126.768 58.0298C126.915 58.2088 127.028 58.3778 127.104 58.5369H127.19V57.4545H128.711V64.1065C128.711 64.6662 128.577 65.1293 128.31 65.4957C128.043 65.8622 127.678 66.1364 127.215 66.3182C126.752 66.5 126.226 66.5909 125.638 66.5909ZM125.651 62.696C125.978 62.696 126.256 62.6165 126.486 62.4574C126.717 62.2983 126.891 62.0696 127.011 61.7713C127.13 61.473 127.19 61.1151 127.19 60.6974C127.19 60.2855 127.13 59.9247 127.011 59.6151C126.894 59.3054 126.721 59.0653 126.491 58.8949C126.263 58.7216 125.984 58.6349 125.651 58.6349C125.307 58.6349 125.021 58.7244 124.79 58.9034C124.56 59.0824 124.387 59.3281 124.271 59.6406C124.154 59.9503 124.096 60.3026 124.096 60.6974C124.096 61.098 124.154 61.4489 124.271 61.75C124.39 62.0483 124.565 62.2812 124.795 62.4489C125.028 62.6136 125.313 62.696 125.651 62.696ZM136.057 57.4545V58.6477H132.294V57.4545H136.057ZM133.223 55.8864H134.766V62.0312C134.766 62.2386 134.797 62.3977 134.859 62.5085C134.925 62.6165 135.01 62.6903 135.115 62.7301C135.22 62.7699 135.337 62.7898 135.465 62.7898C135.561 62.7898 135.649 62.7827 135.729 62.7685C135.811 62.7543 135.874 62.7415 135.916 62.7301L136.176 63.9361C136.094 63.9645 135.976 63.9957 135.822 64.0298C135.672 64.0639 135.487 64.0838 135.269 64.0895C134.882 64.1009 134.534 64.0426 134.224 63.9148C133.915 63.7841 133.669 63.5824 133.487 63.3097C133.308 63.0369 133.22 62.696 133.223 62.2869V55.8864ZM137.107 64V57.4545H138.603V58.5455H138.671C138.79 58.1676 138.995 57.8764 139.285 57.6719C139.577 57.4645 139.911 57.3608 140.286 57.3608C140.371 57.3608 140.466 57.3651 140.571 57.3736C140.679 57.3793 140.769 57.3892 140.84 57.4034V58.8224C140.775 58.7997 140.671 58.7798 140.529 58.7628C140.39 58.7429 140.255 58.733 140.124 58.733C139.843 58.733 139.59 58.794 139.366 58.9162C139.144 59.0355 138.969 59.2017 138.841 59.4148C138.714 59.6278 138.65 59.8736 138.65 60.152V64H137.107ZM141.625 64V57.4545H143.167V64H141.625ZM141.838 56.5938L140.53 54.6463H142.042L142.993 56.5938H141.838ZM146.056 60.1648V64H144.514V57.4545H145.988V58.5668H146.065C146.215 58.2003 146.455 57.9091 146.785 57.6932C147.117 57.4773 147.528 57.3693 148.017 57.3693C148.468 57.3693 148.862 57.4659 149.197 57.6591C149.535 57.8523 149.796 58.1321 149.981 58.4986C150.169 58.8651 150.261 59.3097 150.258 59.8324V64H148.715V60.071C148.715 59.6335 148.602 59.2912 148.375 59.044C148.15 58.7969 147.839 58.6733 147.441 58.6733C147.171 58.6733 146.931 58.733 146.721 58.8523C146.514 58.9687 146.35 59.1378 146.231 59.3594C146.115 59.581 146.056 59.8494 146.056 60.1648ZM153.129 60.1648V64H151.586V55.2727H153.095V58.5668H153.171C153.325 58.1974 153.562 57.9062 153.883 57.6932C154.207 57.4773 154.619 57.3693 155.119 57.3693C155.573 57.3693 155.97 57.4645 156.308 57.6548C156.646 57.8452 156.907 58.1236 157.092 58.4901C157.279 58.8565 157.373 59.304 157.373 59.8324V64H155.831V60.071C155.831 59.6307 155.717 59.2884 155.49 59.044C155.265 58.7969 154.95 58.6733 154.544 58.6733C154.271 58.6733 154.027 58.733 153.811 58.8523C153.598 58.9687 153.43 59.1378 153.308 59.3594C153.188 59.581 153.129 59.8494 153.129 60.1648ZM164.289 66.5909C163.735 66.5909 163.259 66.5156 162.861 66.3651C162.463 66.2173 162.144 66.0185 161.902 65.7685C161.661 65.5185 161.493 65.2415 161.4 64.9375L162.789 64.6009C162.851 64.7287 162.942 64.8551 163.061 64.9801C163.181 65.108 163.341 65.2131 163.543 65.2955C163.748 65.3807 164.005 65.4233 164.314 65.4233C164.752 65.4233 165.114 65.3168 165.401 65.1037C165.688 64.8935 165.831 64.5469 165.831 64.0639V62.8239H165.755C165.675 62.983 165.559 63.1463 165.405 63.3139C165.255 63.4815 165.054 63.6222 164.804 63.7358C164.557 63.8494 164.246 63.9062 163.871 63.9062C163.368 63.9062 162.912 63.7884 162.503 63.5526C162.097 63.3139 161.773 62.9588 161.532 62.4872C161.293 62.0128 161.174 61.419 161.174 60.706C161.174 59.9872 161.293 59.3807 161.532 58.8864C161.773 58.3892 162.098 58.0128 162.507 57.7571C162.917 57.4986 163.373 57.3693 163.875 57.3693C164.259 57.3693 164.574 57.4347 164.821 57.5653C165.071 57.6932 165.27 57.848 165.418 58.0298C165.566 58.2088 165.678 58.3778 165.755 58.5369H165.84V57.4545H167.361V64.1065C167.361 64.6662 167.228 65.1293 166.961 65.4957C166.694 65.8622 166.329 66.1364 165.865 66.3182C165.402 66.5 164.877 66.5909 164.289 66.5909ZM164.302 62.696C164.628 62.696 164.907 62.6165 165.137 62.4574C165.367 62.2983 165.542 62.0696 165.661 61.7713C165.78 61.473 165.84 61.1151 165.84 60.6974C165.84 60.2855 165.78 59.9247 165.661 59.6151C165.544 59.3054 165.371 59.0653 165.141 58.8949C164.914 58.7216 164.634 58.6349 164.302 58.6349C163.958 58.6349 163.671 58.7244 163.441 58.9034C163.211 59.0824 163.037 59.3281 162.921 59.6406C162.804 59.9503 162.746 60.3026 162.746 60.6974C162.746 61.098 162.804 61.4489 162.921 61.75C163.04 62.0483 163.215 62.2812 163.445 62.4489C163.678 62.6136 163.963 62.696 164.302 62.696ZM168.702 64V57.4545H170.245V64H168.702ZM169.478 56.5256C169.233 56.5256 169.023 56.4446 168.847 56.2827C168.671 56.1179 168.583 55.9205 168.583 55.6903C168.583 55.4574 168.671 55.2599 168.847 55.098C169.023 54.9332 169.233 54.8509 169.478 54.8509C169.725 54.8509 169.935 54.9332 170.108 55.098C170.285 55.2599 170.373 55.4574 170.373 55.6903C170.373 55.9205 170.285 56.1179 170.108 56.2827C169.935 56.4446 169.725 56.5256 169.478 56.5256ZM177.216 57.0369H178.247C178.247 57.7301 178.085 58.2756 177.762 58.6733C177.44 59.0682 176.906 59.2656 176.159 59.2656V58.5412C176.455 58.5412 176.678 58.4801 176.828 58.358C176.982 58.2358 177.084 58.0625 177.135 57.8381C177.189 57.6108 177.216 57.3437 177.216 57.0369ZM174.446 64.1278C173.807 64.1278 173.253 63.9872 172.784 63.706C172.315 63.4247 171.952 63.0312 171.693 62.5256C171.438 62.0199 171.31 61.429 171.31 60.7528C171.31 60.0767 171.438 59.4844 171.693 58.9759C171.952 58.4673 172.315 58.0724 172.784 57.7912C173.253 57.5099 173.807 57.3693 174.446 57.3693C175.085 57.3693 175.639 57.5099 176.108 57.7912C176.577 58.0724 176.939 58.4673 177.195 58.9759C177.453 59.4844 177.583 60.0767 177.583 60.7528C177.583 61.429 177.453 62.0199 177.195 62.5256C176.939 63.0312 176.577 63.4247 176.108 63.706C175.639 63.9872 175.085 64.1278 174.446 64.1278ZM174.455 62.892C174.801 62.892 175.091 62.7969 175.324 62.6065C175.557 62.4134 175.73 62.1548 175.844 61.831C175.96 61.5071 176.019 61.1463 176.019 60.7486C176.019 60.348 175.96 59.9858 175.844 59.6619C175.73 59.3352 175.557 59.0753 175.324 58.8821C175.091 58.6889 174.801 58.5923 174.455 58.5923C174.1 58.5923 173.804 58.6889 173.568 58.8821C173.335 59.0753 173.161 59.3352 173.044 59.6619C172.931 59.9858 172.874 60.348 172.874 60.7486C172.874 61.1463 172.931 61.5071 173.044 61.831C173.161 62.1548 173.335 62.4134 173.568 62.6065C173.804 62.7969 174.1 62.892 174.455 62.892ZM173.854 56.5938L174.808 54.6463H176.317L175.009 56.5938H173.854ZM178.804 64V57.4545H180.347V64H178.804ZM179.58 56.5256C179.335 56.5256 179.125 56.4446 178.949 56.2827C178.773 56.1179 178.685 55.9205 178.685 55.6903C178.685 55.4574 178.773 55.2599 178.949 55.098C179.125 54.9332 179.335 54.8509 179.58 54.8509C179.827 54.8509 180.037 54.9332 180.21 55.098C180.387 55.2599 180.475 55.4574 180.475 55.6903C180.475 55.9205 180.387 56.1179 180.21 56.2827C180.037 56.4446 179.827 56.5256 179.58 56.5256ZM187.698 57.4545V58.6477H183.935V57.4545H187.698ZM184.864 55.8864H186.407V62.0312C186.407 62.2386 186.438 62.3977 186.501 62.5085C186.566 62.6165 186.651 62.6903 186.756 62.7301C186.861 62.7699 186.978 62.7898 187.106 62.7898C187.202 62.7898 187.29 62.7827 187.37 62.7685C187.452 62.7543 187.515 62.7415 187.557 62.7301L187.817 63.9361C187.735 63.9645 187.617 63.9957 187.464 64.0298C187.313 64.0639 187.129 64.0838 186.91 64.0895C186.523 64.1009 186.175 64.0426 185.866 63.9148C185.556 63.7841 185.31 63.5824 185.129 63.3097C184.95 63.0369 184.861 62.696 184.864 62.2869V55.8864ZM190.431 60.1648V64H188.889V55.2727H190.397V58.5668H190.474C190.628 58.1974 190.865 57.9062 191.186 57.6932C191.51 57.4773 191.922 57.3693 192.422 57.3693C192.876 57.3693 193.272 57.4645 193.61 57.6548C193.949 57.8452 194.21 58.1236 194.395 58.4901C194.582 58.8565 194.676 59.304 194.676 59.8324V64H193.133V60.071C193.133 59.6307 193.02 59.2884 192.792 59.044C192.568 58.7969 192.253 58.6733 191.846 58.6733C191.574 58.6733 191.329 58.733 191.113 58.8523C190.9 58.9687 190.733 59.1378 190.61 59.3594C190.491 59.581 190.431 59.8494 190.431 60.1648ZM196.008 64V57.4545H197.551V64H196.008ZM196.784 56.5256C196.539 56.5256 196.329 56.4446 196.153 56.2827C195.977 56.1179 195.889 55.9205 195.889 55.6903C195.889 55.4574 195.977 55.2599 196.153 55.098C196.329 54.9332 196.539 54.8509 196.784 54.8509C197.031 54.8509 197.241 54.9332 197.414 55.098C197.591 55.2599 197.679 55.4574 197.679 55.6903C197.679 55.9205 197.591 56.1179 197.414 56.2827C197.241 56.4446 197.031 56.5256 196.784 56.5256ZM201.795 64.1278C201.139 64.1278 200.572 63.9915 200.095 63.7188C199.62 63.4432 199.255 63.054 198.999 62.5511C198.744 62.0455 198.616 61.4503 198.616 60.7656C198.616 60.0923 198.744 59.5014 198.999 58.9929C199.258 58.4815 199.619 58.0838 200.082 57.7997C200.545 57.5128 201.089 57.3693 201.714 57.3693C202.117 57.3693 202.498 57.4347 202.856 57.5653C203.217 57.6932 203.535 57.892 203.81 58.1619C204.089 58.4318 204.308 58.7756 204.467 59.1932C204.626 59.608 204.705 60.1023 204.705 60.6761V61.1491H199.34V60.1094H203.227C203.224 59.8139 203.16 59.5511 203.035 59.321C202.91 59.0881 202.735 58.9048 202.511 58.7713C202.289 58.6378 202.031 58.571 201.735 58.571C201.42 58.571 201.143 58.6477 200.904 58.8011C200.666 58.9517 200.48 59.1506 200.346 59.3977C200.215 59.642 200.149 59.9105 200.146 60.2031V61.1108C200.146 61.4915 200.215 61.8182 200.355 62.0909C200.494 62.3608 200.688 62.5682 200.938 62.7131C201.188 62.8551 201.481 62.9261 201.816 62.9261C202.041 62.9261 202.244 62.8949 202.426 62.8324C202.607 62.767 202.765 62.6719 202.899 62.5469C203.032 62.4219 203.133 62.267 203.201 62.0824L204.641 62.2443C204.551 62.625 204.377 62.9574 204.122 63.2415C203.869 63.5227 203.545 63.7415 203.15 63.8977C202.755 64.0511 202.303 64.1278 201.795 64.1278ZM202.536 56.6705L201.671 55.5795L200.806 56.6705H199.455V56.6108L201.07 54.7699H202.276L203.887 56.6108V56.6705H202.536ZM201.671 66.3565C201.424 66.3565 201.212 66.2741 201.036 66.1094C200.863 65.9446 200.776 65.7472 200.776 65.517C200.776 65.2869 200.863 65.0895 201.036 64.9247C201.212 64.7599 201.423 64.6776 201.667 64.6776C201.914 64.6776 202.124 64.7599 202.298 64.9247C202.474 65.0895 202.562 65.2869 202.562 65.517C202.562 65.7472 202.474 65.9446 202.298 66.1094C202.124 66.2741 201.916 66.3565 201.671 66.3565ZM209.942 61.2472V57.4545H211.485V64H209.989V62.8366H209.921C209.773 63.2031 209.53 63.5028 209.192 63.7358C208.857 63.9687 208.444 64.0852 207.952 64.0852C207.523 64.0852 207.144 63.9901 206.814 63.7997C206.488 63.6065 206.232 63.3267 206.047 62.9602C205.863 62.5909 205.77 62.1449 205.77 61.6222V57.4545H207.313V61.3835C207.313 61.7983 207.427 62.1278 207.654 62.3722C207.881 62.6165 208.18 62.7386 208.549 62.7386C208.776 62.7386 208.996 62.6832 209.209 62.5724C209.422 62.4616 209.597 62.2969 209.733 62.0781C209.873 61.8565 209.942 61.5795 209.942 61.2472Z" fill="#9700C1"/>
<path d="M59.4095 211.594H60.0002C60.4604 211.594 60.8335 211.967 60.8335 212.428V218.261C60.8335 218.721 60.4604 219.094 60.0002 219.094H58.3335L54.8599 214.231C54.4454 213.651 53.7078 213.399 53.0248 213.604L50.9537 214.225C50.3664 214.401 49.7298 214.241 49.2963 213.807L49.0523 213.563C48.6805 213.191 48.7418 212.572 49.1793 212.28L53.6802 209.28C54.2293 208.914 54.9427 208.906 55.4995 209.261L58.9622 211.464C59.0958 211.549 59.2511 211.594 59.4095 211.594ZM47.5226 218.507L46.1761 219.685C45.7833 220.028 45.7995 220.645 46.21 220.967L50.494 224.333C50.894 224.647 51.4799 224.533 51.7323 224.091L52.3189 223.065C52.6773 222.438 52.5909 221.651 52.1051 221.117L49.8533 218.64C49.2424 217.968 48.206 217.909 47.5226 218.507ZM49.2046 210.761H45.8333C45.3731 210.761 45 211.134 45 211.594V217.858C45 218.198 45.104 218.525 45.2918 218.8C45.3118 218.781 45.3321 218.762 45.353 218.744L46.6994 217.566C47.8955 216.519 49.7092 216.623 50.7782 217.799L53.0301 220.276C53.8803 221.211 54.0313 222.588 53.4043 223.685L52.859 224.639C53.3281 224.817 53.8625 224.777 54.3075 224.51L57.9818 222.305C58.3988 222.055 58.5138 221.502 58.2313 221.107L53.8424 214.958C53.7388 214.813 53.5543 214.75 53.3836 214.801L51.3125 215.422C50.2848 215.731 49.1708 215.45 48.4121 214.691L48.1681 214.447C47.2385 213.517 47.3917 211.97 48.4856 211.24L49.2046 210.761Z" fill="black" fill-opacity="0.1"/>
<defs>
<linearGradient id="paint0_linear_161_47" x1="0" y1="0" x2="271.501" y2="379.653" gradientUnits="userSpaceOnUse">
<stop stop-color="#9700C1"/>
<stop offset="0.800185" stop-color="#9500FF"/>
</linearGradient>
<linearGradient id="paint1_linear_161_47" x1="173" y1="257.212" x2="285" y2="369.791" gradientUnits="userSpaceOnUse">
<stop offset="0.296848" stop-color="white"/>
<stop offset="1" stop-color="#9700C1"/>
</linearGradient>
<linearGradient id="paint2_linear_161_47" x1="25" y1="151.512" x2="175" y2="303.488" gradientUnits="userSpaceOnUse">
<stop stop-color="#D900DD"/>
<stop offset="1" stop-color="#FF5EEC"/>
</linearGradient>
<linearGradient id="paint3_linear_161_47" x1="198" y1="151.512" x2="348" y2="303.488" gradientUnits="userSpaceOnUse">
<stop stop-color="#2DC7AB"/>
<stop offset="1" stop-color="#5EDFFF"/>
</linearGradient>
<clipPath id="clip0_161_47">
<rect width="20" height="20" fill="white" transform="translate(280 242)"/>
</clipPath>
</defs>
</svg>
