<svg width="363" height="310" viewBox="0 0 363 310" fill="none" xmlns="http://www.w3.org/2000/svg">
<rect x="49.8597" y="36.9785" width="270" height="64" rx="7" transform="rotate(3 49.8597 36.9785)" fill="#F2F2F2"/>
<path d="M108.031 74.8224L152.969 77.1775" stroke="#EBEBEB" stroke-width="5" stroke-linecap="round"/>
<g clip-path="url(#clip0_175_138)">
<path d="M95.1628 76.5229C92.0959 86.5549 81.4766 92.2016 71.4435 89.134C61.4145 86.0672 55.7679 75.4472 58.8361 65.416C61.9019 55.3829 72.5213 49.7359 82.5514 52.8026C92.5838 55.8695 98.2296 66.4906 95.1628 76.5229Z" fill="#F7931A"/>
<path d="M70.5892 73.8367C70.4725 74.0874 70.191 74.4579 69.6092 74.2813C69.6284 74.3126 68.1158 73.8243 68.1158 73.8243L66.9574 76.153L69.6312 76.9705C70.1285 77.1231 70.6155 77.2813 71.0952 77.4313L70.0525 80.8453L72.1046 81.4731L73.1372 78.0954C73.6971 78.2793 74.2412 78.4505 74.7737 78.6127L73.7449 81.9746L75.7995 82.6026L76.842 79.1951C80.3568 80.0529 83.0402 79.9218 84.3321 76.77C85.3729 74.2321 84.5005 72.6911 82.6838 71.6209C84.0604 71.3784 85.1319 70.5374 85.5021 68.7036C86.0122 66.1986 84.161 64.7407 81.5798 63.6976L82.6117 60.3222L80.5571 59.6943L79.5524 62.9807C79.0124 62.8157 78.457 62.6575 77.9051 62.5007L78.9168 59.1927L76.8634 58.5649L75.831 61.939C75.3833 61.8122 74.9439 61.6868 74.5179 61.5569L74.5209 61.5463L71.6875 60.679L71.0171 62.8735C71.0171 62.8735 72.5431 63.3084 72.5094 63.3287C73.3416 63.5834 73.4646 64.1492 73.416 64.5903M80.396 75.1243C79.6172 77.6757 75.3375 76.05 73.945 75.6256L75.3284 71.1029C76.721 71.5291 81.2098 72.4635 80.3963 75.1243L80.396 75.1243ZM81.3915 68.4508C80.6811 70.7715 77.121 69.387 75.9613 69.0324L77.2154 64.9302C78.3754 65.2848 82.1313 66.0298 81.3917 68.4509L81.3915 68.4508Z" fill="white"/>
</g>
<path d="M108.062 59.6449L197.938 64.3551" stroke="#DADADA" stroke-width="10" stroke-linecap="round"/>
<rect x="238.57" y="54.3719" width="63" height="30" rx="5" transform="rotate(3 238.57 54.3719)" fill="#9700C1"/>
<path d="M252.024 70.0841L286.976 71.9159" stroke="#B700EA" stroke-width="5" stroke-linecap="round"/>
<rect x="46.5103" y="130.109" width="270" height="64" rx="7" transform="rotate(-3 46.5103 130.109)" fill="white"/>
<rect x="47" y="130.131" width="270" height="64" rx="7" transform="rotate(-3 47 130.131)" fill="#F2F2F2"/>
<path d="M108.031 156.177L152.969 153.822" stroke="#EBEBEB" stroke-width="5" stroke-linecap="round"/>
<path d="M108.062 143.355L197.938 138.645" stroke="#DADADA" stroke-width="10" stroke-linecap="round"/>
<rect x="237" y="136.669" width="63" height="30" rx="5" transform="rotate(-3 237 136.669)" fill="#9700C1"/>
<path d="M252.024 150.916L286.976 149.084" stroke="#B700EA" stroke-width="5" stroke-linecap="round"/>
<rect x="49.8597" y="194.979" width="270" height="64" rx="7" transform="rotate(3 49.8597 194.979)" fill="white"/>
<rect x="49.8597" y="194.979" width="270" height="64" rx="7" transform="rotate(3 49.8597 194.979)" fill="#F2F2F2"/>
<path d="M78.0094 247.172C67.4239 247.172 58.8427 238.591 58.8427 228.005C58.8427 217.42 67.4239 208.839 78.0094 208.839C88.5947 208.839 97.176 217.42 97.176 228.005C97.176 238.591 88.5947 247.172 78.0094 247.172ZM74.2719 226.089C74.7158 223.901 76.6495 222.255 78.9677 222.255C80.1468 222.255 81.2265 222.681 82.0612 223.388L85.3212 221.214C83.7448 219.498 81.4818 218.422 78.9677 218.422C74.5281 218.422 70.872 221.776 70.3953 226.089H68.426V229.922H70.3953C70.872 234.234 74.5281 237.589 78.9677 237.589C81.4818 237.589 83.7448 236.513 85.3212 234.797L82.061 232.623C81.2263 233.33 80.1468 233.755 78.9677 233.755C76.6495 233.755 74.7158 232.109 74.2719 229.922H83.7594V226.089H74.2719Z" fill="#5047FF"/>
<path d="M108.031 232.823L152.969 235.178" stroke="#EBEBEB" stroke-width="5" stroke-linecap="round"/>
<path d="M108.062 217.645L197.938 222.355" stroke="#DADADA" stroke-width="10" stroke-linecap="round"/>
<rect x="238.57" y="212.372" width="63" height="30" rx="5" transform="rotate(3 238.57 212.372)" fill="#9700C1"/>
<path d="M252.024 228.084L286.976 229.916" stroke="#B700EA" stroke-width="5" stroke-linecap="round"/>
<path d="M79.8052 179.224C69.0719 180.352 59.4563 172.566 58.3281 161.832C57.2 151.099 64.9866 141.483 75.7199 140.355C86.4532 139.227 96.0688 147.014 97.197 157.747C98.3251 168.48 90.5384 178.096 79.8052 179.224ZM71.369 164.391L71.7776 168.278L76.6362 167.768L77.0447 171.654L80.9316 171.246L80.5231 167.359L82.4665 167.155C85.1498 166.873 87.0965 164.469 86.8144 161.786C86.5324 159.102 84.1285 157.156 81.4452 157.438L73.6714 158.255C73.1347 158.311 72.654 157.922 72.5975 157.385C72.5411 156.849 72.9305 156.368 73.4672 156.311L84.1561 155.188L83.7476 151.301L78.889 151.812L78.4804 147.925L74.5936 148.333L75.0021 152.22L73.0587 152.424C70.3753 152.706 68.4286 155.11 68.7107 157.794C68.9927 160.477 71.3966 162.424 74.08 162.142L81.8537 161.325C82.3903 161.268 82.8712 161.658 82.9276 162.194C82.984 162.731 82.5946 163.212 82.058 163.268L71.369 164.391Z" fill="#2DC7AB"/>
<defs>
<clipPath id="clip0_175_138">
<rect width="38" height="38" fill="white" transform="translate(59.0204 51) rotate(3)"/>
</clipPath>
</defs>
</svg>
