<svg width="232" height="200" viewBox="0 0 232 200" fill="none" xmlns="http://www.w3.org/2000/svg">
<circle cx="112" cy="100" r="100" fill="#BF4EDF"/>
<path d="M208.137 127.614C202.403 147.612 190.599 165.043 174.846 177.786L82 85L132.992 52.5078L208.137 127.614Z" fill="#9700C1"/>
<path d="M174.855 177.779C159.551 190.163 140.519 198.121 119.705 199.707L73.2119 153.214L111.751 114.675L174.855 177.779Z" fill="#9700C1"/>
<path d="M112 50C125.255 50 136 60.7452 136 74C136 87.2548 125.255 98 112 98C98.7452 98 88 87.2548 88 74C88 60.7452 98.7452 50 112 50Z" fill="#9700C1" stroke="white" stroke-width="12"/>
<path d="M82 74H142V113H109L82 85V74Z" fill="#9700C1"/>
<rect x="82" y="74" width="12" height="11" fill="white"/>
<rect x="130" y="74" width="12" height="11" fill="white"/>
<rect x="72" y="90" width="80" height="65" rx="5" fill="white"/>
<path d="M108 120.93C105.609 119.546 104 116.961 104 114C104 109.582 107.582 106 112 106C116.418 106 120 109.582 120 114C120 116.961 118.391 119.546 116 120.93L118 133.5H106L108 120.93Z" fill="#9700C1"/>
<circle cx="17.5" cy="177.5" r="7.5" fill="#BF4EDF"/>
<circle cx="227.5" cy="99.5" r="4.5" fill="#BF4EDF"/>
<circle cx="2.5" cy="7.5" r="2.5" fill="#BF4EDF"/>
</svg>
